<svg width="12" height="13" viewBox="0 0 12 13" fill="none" xmlns="http://www.w3.org/2000/svg">
<g clip-path="url(#clip0_58_796)">
<path d="M1.45617 12.4968C1.26051 12.5142 1.0634 12.4899 0.877778 12.4256C0.692158 12.3614 0.522234 12.2586 0.379165 12.124C0.200726 11.9647 -0.643671 10.9992 1.01645 8.13782L1.16621 7.87653C2.667 5.29873 4.72542 1.77138 7.62505 3.03957C7.69589 3.06858 7.76504 3.10155 7.83216 3.13835L9.97343 1.00027C10.0732 0.900472 10.1917 0.821306 10.3221 0.767295C10.4525 0.713284 10.5922 0.685486 10.7334 0.685486C10.8745 0.685486 11.0143 0.713284 11.1447 0.767295C11.2751 0.821306 11.3935 0.900472 11.4933 1.00027C11.5931 1.10007 11.6723 1.21855 11.7263 1.34894C11.7803 1.47934 11.8081 1.61909 11.8081 1.76023C11.8081 1.90137 11.7803 2.04112 11.7263 2.17151C11.6723 2.30191 11.5931 2.42039 11.4933 2.52018L9.35845 4.65826C9.39669 4.73155 9.43174 4.79846 9.46042 4.86538C10.735 7.76819 7.19807 9.82343 4.62346 11.3242L4.36217 11.4772C3.00158 12.2706 2.07115 12.4968 1.45617 12.4968ZM6.42696 3.22438C4.40359 3.22438 2.84863 5.89459 1.56132 8.10277L1.40837 8.36405C-0.146592 11.0311 0.662755 11.7831 0.672314 11.7894L0.71055 11.8245C0.71055 11.8245 1.47847 12.6402 4.13594 11.0884L4.39722 10.9355C6.96228 9.44106 10.1551 7.5802 9.04618 5.047C8.99962 4.93764 8.94642 4.83123 8.88686 4.72836C8.86162 4.68523 8.85137 4.63495 8.85771 4.58538C8.86405 4.5358 8.88662 4.48972 8.92192 4.45433L11.1811 2.19517C11.2601 2.14318 11.3266 2.07423 11.3757 1.99334C11.4248 1.91244 11.4552 1.82163 11.4649 1.7275C11.4745 1.63337 11.463 1.53828 11.4313 1.44913C11.3996 1.35998 11.3484 1.27902 11.2815 1.21211C11.2146 1.1452 11.1336 1.09403 11.0445 1.06232C10.9553 1.0306 10.8602 1.01914 10.7661 1.02876C10.672 1.03837 10.5812 1.06883 10.5003 1.11791C10.4194 1.167 10.3504 1.23348 10.2984 1.31254L8.03609 3.5717C8.00151 3.60722 7.95594 3.63001 7.90677 3.63638C7.85761 3.64274 7.80774 3.6323 7.76525 3.60675C7.66201 3.54693 7.55565 3.49269 7.44661 3.44424C7.12515 3.30258 6.77823 3.22777 6.42696 3.22438Z" fill="#6D6D6D"/>
<path d="M10.9134 5.748H9.4222C9.37072 5.74771 9.32087 5.72987 9.2809 5.69743C9.24092 5.66499 9.21321 5.61988 9.20234 5.56956C9.16435 5.38998 9.10775 5.21484 9.03346 5.04699C8.9664 4.9057 8.88752 4.77032 8.79766 4.64232L8.78492 4.61683C8.75946 4.57474 8.74841 4.5255 8.75345 4.47657C8.75848 4.42764 8.77933 4.38169 8.81283 4.34567C8.84633 4.30965 8.89065 4.28553 8.93909 4.27696C8.98752 4.26839 9.03743 4.27584 9.08125 4.29819L9.74084 3.6386C9.76161 3.61741 9.7864 3.60058 9.81375 3.58909C9.84111 3.5776 9.87049 3.57168 9.90016 3.57169H10.9102C11.1984 3.57169 11.4748 3.68616 11.6786 3.88993C11.8823 4.0937 11.9968 4.37007 11.9968 4.65825C11.9968 4.94617 11.8829 5.22239 11.6799 5.42657C11.4769 5.63076 11.2013 5.74632 10.9134 5.748ZM9.6102 5.29872H10.9134C11.0825 5.29872 11.2445 5.23158 11.3641 5.11206C11.4836 4.99255 11.5507 4.83045 11.5507 4.66144C11.5507 4.49242 11.4836 4.33032 11.3641 4.21081C11.2445 4.0913 11.0825 4.02415 10.9134 4.02415H9.99894L9.36166 4.66144C9.39989 4.72835 9.43494 4.79526 9.46681 4.86537C9.52592 5.00582 9.57386 5.15072 9.6102 5.29872Z" fill="#6D6D6D"/>
<path d="M8.00422 3.74377C7.96088 3.7438 7.91859 3.73045 7.88314 3.70553H7.85764C7.72999 3.6142 7.59459 3.53423 7.45297 3.46655C7.28331 3.39413 7.10731 3.3376 6.92721 3.29767C6.87721 3.2867 6.8325 3.25886 6.80058 3.21883C6.76867 3.17879 6.7515 3.129 6.75196 3.07781V1.58657C6.76703 1.30815 6.88825 1.04611 7.09066 0.854353C7.29308 0.662599 7.5613 0.555725 7.84012 0.555725C8.11894 0.555725 8.38716 0.662599 8.58957 0.854353C8.79199 1.04611 8.91321 1.30815 8.92828 1.58657V2.59347C8.92793 2.65334 8.90387 2.71063 8.86136 2.75279L8.20178 3.41238C8.2229 3.44691 8.23407 3.48661 8.23407 3.52709C8.23407 3.56757 8.2229 3.60727 8.20178 3.6418C8.17998 3.67394 8.15048 3.7001 8.11597 3.71791C8.08146 3.73572 8.04304 3.74461 8.00422 3.74377ZM7.19169 2.88662C7.33861 2.92704 7.48239 2.97816 7.62185 3.03957C7.69514 3.07143 7.76205 3.10649 7.82578 3.14154L8.46306 2.50425V1.58657C8.46306 1.41755 8.39592 1.25546 8.27641 1.13594C8.15689 1.01643 7.9948 0.949288 7.82578 0.949288C7.65676 0.949288 7.49467 1.01643 7.37516 1.13594C7.25564 1.25546 7.1885 1.41755 7.1885 1.58657L7.19169 2.88662Z" fill="#6D6D6D"/>
<path d="M5.85661 9.0077C5.82691 9.00788 5.79748 9.00205 5.7701 8.99055C5.74272 8.97905 5.71795 8.96212 5.69729 8.94079L3.55603 6.80271C3.51986 6.75934 3.50122 6.70402 3.50377 6.6476C3.50632 6.59119 3.52987 6.53777 3.5698 6.49784C3.60973 6.45791 3.66315 6.43436 3.71956 6.43181C3.77597 6.42926 3.8313 6.4479 3.87467 6.48407L6.01274 8.62533C6.03434 8.64587 6.05154 8.67058 6.06328 8.69797C6.07503 8.72536 6.08109 8.75485 6.08109 8.78465C6.08109 8.81445 6.07503 8.84395 6.06328 8.87133C6.05154 8.89872 6.03434 8.92344 6.01274 8.94397C5.99241 8.96464 5.96808 8.98095 5.94124 8.99191C5.91439 9.00286 5.8856 9.00824 5.85661 9.0077Z" fill="#6D6D6D"/>
<path d="M7.55813 7.30297C7.52866 7.30357 7.49937 7.29824 7.472 7.28729C7.44463 7.27634 7.41974 7.26 7.39881 7.23924L5.26073 5.09798C5.23954 5.07721 5.2227 5.05242 5.2112 5.02506C5.19971 4.99771 5.19379 4.96833 5.19379 4.93866C5.19379 4.90898 5.19971 4.87961 5.2112 4.85225C5.2227 4.82489 5.23954 4.80011 5.26073 4.77934C5.3035 4.73806 5.36062 4.715 5.42005 4.715C5.47949 4.715 5.53661 4.73806 5.57937 4.77934L7.71745 6.9206C7.74931 6.9518 7.77108 6.99183 7.77996 7.03553C7.78884 7.07922 7.78441 7.12458 7.76727 7.16573C7.75012 7.20689 7.72103 7.24196 7.68375 7.26643C7.64647 7.29089 7.60272 7.30362 7.55813 7.30297Z" fill="#6D6D6D"/>
<path d="M3.80777 10.3683C3.7781 10.3683 3.74872 10.3624 3.72136 10.3509C3.69401 10.3394 3.66922 10.3226 3.64845 10.3014L2.19545 8.85156C2.15417 8.80879 2.1311 8.75168 2.1311 8.69224C2.1311 8.63281 2.15417 8.57569 2.19545 8.53292C2.21621 8.51173 2.241 8.49489 2.26836 8.48339C2.29572 8.4719 2.32509 8.46597 2.35477 8.46597C2.38444 8.46597 2.41382 8.4719 2.44117 8.48339C2.46853 8.49489 2.49332 8.51173 2.51409 8.53292L3.96709 9.98274C4.00836 10.0255 4.03143 10.0826 4.03143 10.1421C4.03143 10.2015 4.00836 10.2586 3.96709 10.3014C3.94632 10.3226 3.92153 10.3394 3.89417 10.3509C3.86681 10.3624 3.83744 10.3683 3.80777 10.3683Z" fill="#6D6D6D"/>
<path d="M8.40571 4.14525C8.37604 4.14526 8.34667 4.13934 8.31931 4.12785C8.29195 4.11636 8.26716 4.09953 8.24639 4.07834L7.84491 3.67685C7.80874 3.63349 7.7901 3.57816 7.79265 3.52175C7.7952 3.46534 7.81875 3.41192 7.85868 3.37199C7.89861 3.33206 7.95203 3.3085 8.00844 3.30596C8.06485 3.30341 8.12018 3.32205 8.16355 3.35821L8.56503 3.7597C8.59641 3.79133 8.61775 3.83153 8.62637 3.87524C8.635 3.91896 8.63052 3.96424 8.6135 4.00542C8.59649 4.0466 8.56769 4.08184 8.53072 4.10672C8.49376 4.13159 8.45027 4.145 8.40571 4.14525Z" fill="#6D6D6D"/>
</g>
<defs>
<clipPath id="clip0_58_796">
<rect width="12" height="12" fill="white" transform="translate(0 0.5)"/>
</clipPath>
</defs>
</svg>
