<svg width="11" height="13" viewBox="0 0 11 13" fill="none" xmlns="http://www.w3.org/2000/svg">
<g clip-path="url(#clip0_58_772)">
<path d="M7.13936 4.56098C7.11946 4.54439 7.09615 4.5325 7.07114 4.52617C7.04613 4.51984 7.02003 4.51922 6.99475 4.52438L2.41835 5.41706C2.37817 5.42482 2.34199 5.4467 2.3162 5.47883C2.2904 5.51096 2.27665 5.5513 2.27737 5.59269V10.1622C1.90891 10.1229 1.53656 10.1757 1.19292 10.3159C0.328968 10.6525 -0.177116 11.3585 0.0361608 11.9256C0.104252 12.077 0.210654 12.2074 0.344595 12.3038C0.478536 12.4002 0.635265 12.459 0.798901 12.4744C0.902672 12.4935 1.00791 12.5033 1.11339 12.5037C1.40423 12.4996 1.69198 12.4425 1.96288 12.3353C2.68585 12.0573 3.17386 11.5049 3.16663 10.9854V7.9817L6.28263 7.3744V9.15244C5.92015 9.11719 5.5546 9.16986 5.21625 9.30609C4.34869 9.64268 3.84261 10.3524 4.05589 10.9158C4.12379 11.0677 4.23005 11.1987 4.36397 11.2957C4.49788 11.3927 4.65471 11.4522 4.81862 11.4683C5.21193 11.5267 5.61353 11.4788 5.9826 11.3293C6.68388 11.0549 7.1755 10.5134 7.18634 10.0049V4.69634C7.18622 4.6469 7.16672 4.59954 7.13212 4.56464L7.13936 4.56098ZM6.85378 9.96462V9.9866C6.85378 10.3524 6.44169 10.7768 5.87054 10.9964C5.5622 11.126 5.22499 11.169 4.89453 11.1207C4.7907 11.1128 4.69054 11.0785 4.60333 11.0209C4.51613 10.9634 4.4447 10.8844 4.39567 10.7915C4.25469 10.4256 4.69572 9.89511 5.35362 9.63901C5.69532 9.4897 6.07498 9.45385 6.43808 9.53658C6.4639 9.54391 6.49104 9.54507 6.51738 9.54C6.54372 9.53492 6.56854 9.52373 6.58989 9.50731C6.6114 9.49046 6.62877 9.46883 6.64068 9.44409C6.65259 9.41935 6.65872 9.39216 6.65858 9.36464V7.16952C6.65917 7.1435 6.65392 7.11768 6.64322 7.09402C6.63252 7.07036 6.61665 7.04946 6.59681 7.0329C6.57697 7.01635 6.55368 7.00457 6.52869 6.99845C6.5037 6.99233 6.47765 6.99201 6.45253 6.99756L2.9895 7.6744C2.94962 7.68137 2.9135 7.70252 2.88766 7.73404C2.86181 7.76556 2.84793 7.80538 2.84852 7.84634V10.9927C2.84852 11.3585 2.43642 11.7939 1.86528 12.0171C1.55648 12.145 1.21975 12.1879 0.889272 12.1415C0.784912 12.1339 0.684227 12.0992 0.596878 12.0409C0.509529 11.9827 0.438441 11.9026 0.39042 11.8085C0.249441 11.4427 0.690451 10.9122 1.34835 10.6561C1.57885 10.5647 1.8238 10.5164 2.07133 10.5134C2.19308 10.5097 2.31475 10.5233 2.43281 10.5536C2.45863 10.561 2.48577 10.5622 2.51212 10.5571C2.53846 10.552 2.56329 10.5408 2.58464 10.5244C2.60607 10.5083 2.62345 10.4873 2.63539 10.4632C2.64732 10.439 2.65346 10.4124 2.65332 10.3854V5.74634L6.8827 4.92317L6.85378 9.96462Z" fill="#6D6D6D"/>
<path d="M3.01116 7.37073H3.0437L6.50673 6.69391C6.54691 6.68616 6.58309 6.66428 6.60888 6.63215C6.63468 6.60002 6.64843 6.55968 6.64771 6.51829V6.03169C6.6483 6.00568 6.64305 5.97988 6.63235 5.95622C6.62165 5.93256 6.60578 5.91164 6.58594 5.89508C6.5661 5.87852 6.54281 5.86675 6.51782 5.86063C6.49283 5.8545 6.46678 5.85421 6.44166 5.85975L2.97863 6.53293C2.93877 6.54135 2.90298 6.56338 2.87731 6.59537C2.85163 6.62735 2.83762 6.66733 2.83765 6.70854V7.19513C2.83764 7.24205 2.85581 7.28709 2.88825 7.3206C2.92069 7.35412 2.96482 7.37344 3.01116 7.37439V7.37073ZM3.18468 6.85123L6.30068 6.24023V6.37196L3.18468 6.97927V6.85123Z" fill="#6D6D6D"/>
<path d="M11 1.14025C10.9941 1.12768 10.9856 1.11658 10.9749 1.10773C10.9643 1.09888 10.9519 1.09251 10.9386 1.08904L8.40818 0.51465C8.38857 0.510464 8.36813 0.513263 8.35034 0.5226C8.33255 0.531937 8.3185 0.547242 8.31058 0.565875L7.30203 2.91099C7.12356 2.80679 6.92237 2.74897 6.71643 2.74269C6.4974 2.72986 6.27898 2.77659 6.08383 2.87805C5.99925 2.91059 5.92595 2.96751 5.873 3.04177C5.82006 3.11604 5.78979 3.20439 5.78594 3.29589C5.78209 3.38738 5.80484 3.47802 5.85136 3.55657C5.89788 3.63512 5.96614 3.69813 6.04768 3.73782C6.23267 3.85723 6.44646 3.92301 6.66581 3.92805C6.83981 3.95486 7.01776 3.93009 7.17814 3.85673C7.33851 3.78336 7.47445 3.66456 7.56953 3.51465L8.23105 1.97806L9.97702 2.37317L9.57578 3.30245C9.39631 3.20117 9.19554 3.14472 8.99017 3.13781C8.48048 3.11586 8.072 3.35733 8.05754 3.69026C8.05951 3.78094 8.08491 3.86952 8.13121 3.94719C8.1775 4.02485 8.24308 4.0889 8.32142 4.13295C8.50679 4.25107 8.72055 4.31558 8.93956 4.31951H9.00463C9.16579 4.33448 9.32798 4.30539 9.47423 4.23524C9.62049 4.16509 9.74545 4.05648 9.83605 3.92075L10.9964 1.22075C11.008 1.19544 11.0093 1.16651 11 1.14025ZM9.67699 3.8183C9.59468 3.92994 9.48393 4.01684 9.35658 4.06969C9.22923 4.12253 9.09008 4.13932 8.95402 4.1183C8.76643 4.11328 8.58333 4.05907 8.42264 3.96099C8.37085 3.9318 8.32695 3.89018 8.2948 3.83978C8.26266 3.78938 8.24324 3.73175 8.23828 3.67197C8.23828 3.45612 8.56001 3.30612 8.93595 3.30612H8.99017C9.19695 3.30913 9.39773 3.37685 9.56493 3.50001C9.57689 3.50535 9.58981 3.50811 9.60288 3.50811C9.61595 3.50811 9.62889 3.50535 9.64084 3.50001C9.65361 3.4963 9.66542 3.48979 9.67542 3.48094C9.68541 3.47208 9.69335 3.4611 9.69868 3.44878L10.1831 2.32197C10.1882 2.31029 10.1907 2.29763 10.1905 2.28486C10.1903 2.27208 10.1874 2.25951 10.1819 2.24801C10.1764 2.23652 10.1684 2.22637 10.1586 2.21829C10.1489 2.21021 10.1375 2.20439 10.1252 2.20123L8.20575 1.76953C8.18656 1.76507 8.16645 1.76736 8.14871 1.776C8.13098 1.78464 8.11667 1.79913 8.10815 1.81709L7.42133 3.41587C7.33907 3.52794 7.22857 3.61559 7.10139 3.66965C6.97421 3.72371 6.83502 3.74219 6.69836 3.72317C6.51025 3.71824 6.32683 3.66268 6.16697 3.5622C6.11519 3.53301 6.07128 3.49139 6.03913 3.44099C6.00698 3.39059 5.98757 3.33296 5.98261 3.27318C5.99295 3.21411 6.01748 3.15854 6.05404 3.11133C6.0906 3.06412 6.13807 3.02672 6.19227 3.00245C6.35981 2.91672 6.54726 2.87878 6.7345 2.8927C6.94088 2.89465 7.14163 2.96108 7.30927 3.08293C7.32128 3.08806 7.33418 3.09072 7.34722 3.09072C7.36026 3.09072 7.37317 3.08806 7.38518 3.08293C7.39795 3.07922 7.40974 3.07271 7.41974 3.06386C7.42974 3.05501 7.43769 3.04404 7.44302 3.03173L8.46602 0.653676L10.8265 1.19147L9.67699 3.8183Z" fill="#6D6D6D"/>
<path d="M8.3431 1.25001L8.23466 1.49879C8.22832 1.50991 8.22498 1.52252 8.22498 1.53537C8.22498 1.54821 8.22832 1.56084 8.23466 1.57196C8.23998 1.5839 8.24797 1.59441 8.25802 1.60267C8.26806 1.61093 8.27986 1.61668 8.29249 1.61951L10.2084 2.05487H10.2409C10.2578 2.05603 10.2747 2.05169 10.289 2.04248C10.3033 2.03326 10.3143 2.01967 10.3204 2.00367L10.4289 1.75489C10.4352 1.7431 10.4385 1.72988 10.4385 1.71646C10.4385 1.70304 10.4352 1.68985 10.4289 1.67805C10.4229 1.66655 10.4148 1.6564 10.4048 1.64822C10.3949 1.64004 10.3834 1.63401 10.371 1.63049L8.43347 1.19512C8.41447 1.1923 8.39508 1.19622 8.3786 1.20622C8.36213 1.21623 8.34958 1.2317 8.3431 1.25001ZM8.47323 1.38538L10.2156 1.78048L10.1794 1.86464L8.43709 1.46951L8.47323 1.38538Z" fill="#6D6D6D"/>
</g>
<defs>
<clipPath id="clip0_58_772">
<rect width="11" height="12" fill="white" transform="translate(0 0.5)"/>
</clipPath>
</defs>
</svg>
