<svg width="11" height="13" viewBox="0 0 11 13" fill="none" xmlns="http://www.w3.org/2000/svg">
<g clip-path="url(#clip0_58_758)">
<path d="M6.68302 7.8582L10.5848 9.80309C10.6396 9.83181 10.7029 9.84168 10.7643 9.83107C10.8257 9.82045 10.8815 9.79 10.9224 9.74475C10.9626 9.70058 10.9866 9.64501 10.9909 9.58649C10.9951 9.52798 10.9794 9.46972 10.946 9.4206L10.0347 8.1467C10.0576 8.11819 10.0779 8.08781 10.0954 8.05592L10.2878 7.69937C10.3229 7.63506 10.3443 7.56463 10.3507 7.49226C10.3571 7.4199 10.3483 7.34705 10.3249 7.27798C10.3035 7.20855 10.2676 7.14402 10.2195 7.0883C10.1713 7.03259 10.1119 6.98683 10.0448 6.95383C9.92021 6.8915 9.77616 6.87523 9.63992 6.90809C9.50369 6.94095 9.38473 7.02065 9.3056 7.13211L8.90057 6.56485L9.05921 6.26988C9.09434 6.20557 9.11573 6.13514 9.1221 6.06278C9.12848 5.99041 9.11972 5.91754 9.09634 5.84847C9.07471 5.77867 9.03839 5.71388 8.98962 5.65812C8.94085 5.60236 8.88067 5.55682 8.81281 5.52432C8.74584 5.49058 8.67253 5.47004 8.59717 5.46392C8.52182 5.4578 8.44595 5.46621 8.37403 5.48867C8.30954 5.50911 8.24907 5.5398 8.19514 5.57944L8.07363 5.41088C9.13009 3.31363 9.81864 0.937619 9.04908 0.54864C8.27952 0.159661 6.52438 2.04945 5.33629 4.09483H5.03589C5.04768 4.0155 5.04076 3.93463 5.01563 3.85821C4.96885 3.71874 4.86709 3.60239 4.73211 3.53406C4.66515 3.50032 4.59183 3.47976 4.51647 3.47364C4.44112 3.46752 4.36525 3.47593 4.29333 3.49839C4.22115 3.52017 4.15418 3.55545 4.09625 3.60218C4.03833 3.64891 3.99059 3.70617 3.9558 3.77068L3.77354 4.09483H3.06135C3.1063 3.99946 3.12203 3.89376 3.1067 3.79011C3.09137 3.68646 3.04562 3.58915 2.9748 3.50957C2.90397 3.42999 2.81101 3.37143 2.70678 3.34075C2.60256 3.31006 2.4914 3.30853 2.3863 3.33631C2.31401 3.35688 2.24681 3.39134 2.1888 3.43759C2.13078 3.48384 2.08314 3.54091 2.04877 3.60536L1.85301 3.96516C1.83112 4.01093 1.81415 4.05872 1.80238 4.10779L0.286885 4.12399C0.225379 4.12381 0.165603 4.14356 0.117218 4.18002C0.0688327 4.21649 0.0346655 4.26756 0.0202384 4.32499C0.00635612 4.38275 0.0127271 4.44328 0.0383621 4.49721C0.0639972 4.55114 0.10746 4.59543 0.161999 4.6232L4.06381 6.56809C3.77227 7.29984 3.56844 8.06109 3.45626 8.83714C3.41913 9.0608 3.382 9.27474 3.33813 9.46599L1.31296 10.0851C1.25168 10.1066 1.20029 10.1483 1.16787 10.2027C1.13546 10.2571 1.12411 10.3207 1.13582 10.3824C1.14753 10.4441 1.18155 10.4998 1.23187 10.5397C1.2822 10.5796 1.34559 10.6011 1.41085 10.6005C1.4311 10.6005 3.36513 10.5259 4.9245 12.3703C4.95035 12.4016 4.98318 12.4269 5.02058 12.4443C5.05797 12.4617 5.09897 12.4707 5.14052 12.4708C5.18531 12.4697 5.2292 12.4586 5.26878 12.4384C5.32813 12.4091 5.37428 12.36 5.39853 12.3003C5.42278 12.2406 5.42345 12.1744 5.40041 12.1143L4.75912 10.1694L4.98188 9.93276C5.61423 9.29302 6.18369 8.59854 6.68302 7.8582ZM2.57194 10.2731L3.6284 9.94896C3.67421 9.93573 3.71554 9.91105 3.74815 9.87744C3.78077 9.84384 3.80351 9.80252 3.81404 9.75771C3.87479 9.5146 3.92205 9.24231 3.97268 8.95058C4.08425 8.13385 4.31136 7.33555 4.64773 6.57781C4.67717 6.51613 4.68061 6.44591 4.65733 6.38186C4.63405 6.31781 4.58585 6.26489 4.52285 6.23421L1.37372 4.66209H1.96777C2.00124 4.69163 2.03871 4.7167 2.07915 4.73664C2.16154 4.77757 2.25304 4.7987 2.3458 4.79823C2.4043 4.79914 2.46253 4.79036 2.51794 4.77229C2.59776 4.74916 2.67066 4.70804 2.73058 4.65236H3.74316C3.79575 4.75415 3.88092 4.8371 3.98618 4.889C4.06837 4.93081 4.15982 4.95303 4.25283 4.95382C4.3112 4.95311 4.36917 4.9444 4.42496 4.9279C4.49714 4.90612 4.56411 4.87086 4.62204 4.82413C4.67997 4.7774 4.7277 4.72012 4.76249 4.6556H5.47805C5.52664 4.65406 5.57397 4.64039 5.6154 4.61596C5.65682 4.59152 5.69091 4.55715 5.71431 4.51622C7.02054 2.22125 8.41453 1.08025 8.75206 1.05756C8.90057 1.32012 8.75206 2.87603 7.47283 5.34604C7.4512 5.38805 7.44167 5.43487 7.44523 5.48161C7.44879 5.52835 7.46531 5.57331 7.49308 5.61185L7.83061 6.09158L7.80023 6.1467C7.7651 6.21101 7.74371 6.28142 7.73734 6.35379C7.73096 6.42615 7.73972 6.49902 7.7631 6.56809C7.78472 6.63789 7.82105 6.70268 7.86982 6.75844C7.91859 6.8142 7.97877 6.85974 8.04663 6.89224C8.12796 6.93278 8.21826 6.95391 8.3099 6.95383C8.35259 6.95702 8.39547 6.95702 8.43816 6.95383L9.04571 7.67019C9.01544 7.79006 9.02793 7.91621 9.08117 8.02846C9.1344 8.14071 9.22532 8.23257 9.33936 8.28932C9.39988 8.3184 9.46481 8.33809 9.53174 8.34767L9.86927 8.84685L6.72015 7.27473C6.65765 7.24296 6.58476 7.23568 6.51679 7.25442C6.44882 7.27315 6.39105 7.31645 6.35562 7.37522C5.83689 8.17816 5.22918 8.92481 4.5431 9.60212L4.20557 9.95868C4.1735 9.9928 4.15133 10.0344 4.14126 10.0794C4.13119 10.1243 4.13358 10.171 4.14819 10.2148L4.48572 11.2618C3.92903 10.8113 3.28238 10.4749 2.58544 10.2731H2.57194ZM2.23441 4.18236L2.43018 3.82578C2.44093 3.80446 2.45771 3.78648 2.4786 3.77387C2.49949 3.76126 2.52364 3.75454 2.54831 3.75448C2.57089 3.7537 2.59319 3.75934 2.61244 3.77068C2.64361 3.78718 2.66696 3.81457 2.67764 3.84717C2.68833 3.87977 2.68553 3.91505 2.66982 3.94572L2.47406 4.30229C2.46648 4.31766 2.45567 4.33134 2.44231 4.34249C2.42895 4.35365 2.41333 4.36203 2.39643 4.36711C2.36283 4.37992 2.32539 4.37992 2.29179 4.36711C2.26097 4.3514 2.23791 4.32459 2.22766 4.29256C2.21901 4.27527 2.21479 4.25624 2.21538 4.23706C2.21597 4.21789 2.22134 4.19913 2.23104 4.18236H2.23441ZM4.35408 3.96841C4.36499 3.94745 4.3819 3.92992 4.40282 3.91786C4.42375 3.9058 4.44782 3.89971 4.47222 3.90033C4.4933 3.89551 4.51526 3.89551 4.53635 3.90033C4.568 3.91746 4.59202 3.94515 4.60385 3.97814C4.61054 3.99355 4.61398 4.01006 4.61398 4.02675C4.61398 4.04344 4.61054 4.05998 4.60385 4.07538L4.41146 4.43518C4.39375 4.46499 4.36472 4.48706 4.33046 4.49677C4.31441 4.50319 4.2972 4.50651 4.27983 4.50651C4.26245 4.50651 4.24524 4.50319 4.2292 4.49677C4.19744 4.48083 4.17337 4.45369 4.16204 4.42104C4.15071 4.38839 4.153 4.35279 4.16844 4.32174L4.35408 3.96841ZM8.51917 5.88737H8.55967C8.57967 5.88304 8.60042 5.88304 8.62042 5.88737C8.63642 5.89465 8.65068 5.90504 8.6623 5.91787C8.67392 5.93071 8.68264 5.94571 8.68793 5.96193C8.70127 5.9942 8.70127 6.03015 8.68793 6.06242L8.49554 6.41898C8.48734 6.43409 8.47612 6.4475 8.46252 6.45845C8.44892 6.46939 8.43321 6.47766 8.41629 6.48278C8.39936 6.4879 8.38155 6.48977 8.36388 6.48828C8.3462 6.48679 8.32901 6.48195 8.31327 6.47408C8.29754 6.4662 8.28357 6.45544 8.27217 6.44238C8.26077 6.42932 8.25216 6.41424 8.24683 6.39798C8.24151 6.38173 8.23956 6.36463 8.24112 6.34765C8.24267 6.33068 8.24769 6.31415 8.25589 6.29904L8.44828 5.94249C8.46302 5.91681 8.48703 5.89719 8.51579 5.88737H8.51917ZM9.47436 7.73826L9.66675 7.38171C9.67504 7.36624 9.68648 7.35251 9.7004 7.34137C9.71431 7.33023 9.73042 7.32191 9.74776 7.31687C9.7638 7.31046 9.78101 7.30714 9.79839 7.30714C9.81577 7.30714 9.83298 7.31046 9.84902 7.31687C9.86502 7.32415 9.87928 7.33453 9.8909 7.34736C9.90252 7.36019 9.91124 7.37519 9.91653 7.39142C9.92987 7.42369 9.92987 7.45964 9.91653 7.49191L9.72414 7.84848C9.71656 7.86385 9.70574 7.87753 9.69238 7.88869C9.67902 7.89984 9.6634 7.90822 9.6465 7.9133C9.61297 7.92645 9.5754 7.92645 9.54187 7.9133C9.51102 7.89674 9.48715 7.87039 9.47436 7.83875C9.45993 7.8069 9.45872 7.77095 9.47099 7.73826H9.47436Z" fill="#6D6D6D"/>
</g>
<defs>
<clipPath id="clip0_58_758">
<rect width="11" height="12" fill="white" transform="translate(0 0.5)"/>
</clipPath>
</defs>
</svg>
