<svg width="12" height="13" viewBox="0 0 12 13" fill="none" xmlns="http://www.w3.org/2000/svg">
<g clip-path="url(#clip0_58_779)">
<path d="M10.3131 2.33452C9.76598 1.76618 9.11191 1.31164 8.38847 0.997045C7.66504 0.682451 6.88655 0.51402 6.09778 0.501433C5.309 0.488846 4.5255 0.632351 3.7924 0.923703C3.0593 1.21505 2.39104 1.6485 1.82608 2.19909C1.24771 2.75788 0.787756 3.42739 0.473608 4.16771C0.15946 4.90804 -0.00244141 5.70404 -0.00244141 6.50826C-0.00244141 7.31248 0.15946 8.10846 0.473608 8.84879C0.787756 9.58911 1.24771 10.2586 1.82608 10.8174C2.95419 11.9195 4.47109 12.5327 6.04815 12.5243C7.62522 12.5159 9.13544 11.8864 10.2517 10.7723C11.3679 9.65824 12.0003 8.14922 12.0118 6.57218C12.0233 4.99514 11.413 3.47707 10.3131 2.34683V2.33452ZM2.01077 2.77364C2.89773 3.71581 3.41754 4.94473 3.47589 6.23739H0.54154C0.603158 4.94469 1.12416 3.71642 2.01077 2.77364ZM0.54154 6.7709H3.47589C3.41658 8.06213 2.89683 9.28945 2.01077 10.2306C1.12506 9.28884 0.604121 8.06218 0.54154 6.7709ZM5.73307 11.9583C4.499 11.9005 3.32175 11.4227 2.39654 10.604L2.4663 10.5301L2.58944 10.3865L2.66742 10.2921L2.7741 10.1567C2.80131 10.1259 2.82601 10.0929 2.84797 10.0582C2.88346 10.015 2.91637 9.96982 2.94648 9.92276L3.02035 9.81605L3.10652 9.67652C3.13114 9.64369 3.15168 9.60264 3.1763 9.56571L3.25428 9.43028C3.2789 9.38924 3.29531 9.3523 3.31583 9.31537L3.38969 9.17173C3.41021 9.13479 3.42664 9.09375 3.44716 9.05682L3.51283 8.90908L3.56208 8.79006L3.62362 8.64231C3.62362 8.60127 3.65234 8.56024 3.66876 8.5192L3.71803 8.36735C3.71803 8.32631 3.74675 8.28528 3.75906 8.24424C3.77137 8.2032 3.78778 8.14164 3.80009 8.08829C3.8124 8.03493 3.82472 8.0062 3.83293 7.96516L3.86988 7.801C3.86988 7.76407 3.86988 7.72303 3.89861 7.68199C3.92733 7.64095 3.9191 7.56707 3.92731 7.51372C3.93552 7.46037 3.92731 7.43575 3.92731 7.39472C3.92731 7.35368 3.92733 7.27159 3.94785 7.21003V7.10743C3.94785 7.03356 3.94785 6.9638 3.94785 6.89403C3.94785 6.82426 3.94785 6.84067 3.94785 6.81195V6.78322H5.66742L5.73307 11.9583ZM5.73307 6.23329H4.0135V6.20457C4.0135 6.17584 4.0135 6.15121 4.0135 6.12248C4.0135 6.09376 4.0135 5.98295 4.0135 5.90908V5.80648C4.0135 5.74492 4.01351 5.68336 3.99299 5.6218C3.97247 5.56024 3.99299 5.54382 3.99299 5.50278C3.99299 5.46174 3.99299 5.38787 3.96426 5.33452C3.93553 5.28116 3.96426 5.25244 3.93553 5.2114L3.89861 5.04725C3.89861 5.01031 3.8986 4.96927 3.86577 4.92823C3.83294 4.88719 3.83703 4.82153 3.82471 4.76818C3.8124 4.71483 3.796 4.6902 3.78368 4.64916L3.73444 4.49732C3.73444 4.45628 3.70161 4.41523 3.6893 4.37419L3.62773 4.22645L3.57849 4.10743L3.51283 3.9597C3.49231 3.92276 3.47589 3.88172 3.45537 3.84479C3.43485 3.80785 3.40613 3.75039 3.3815 3.70114C3.35688 3.6519 3.34456 3.62727 3.31993 3.58623C3.29531 3.54519 3.26658 3.49595 3.24196 3.4467C3.21733 3.39745 3.19682 3.37283 3.1722 3.33999L3.086 3.20046L3.01214 3.09375C2.98202 3.04669 2.94914 3.00148 2.91364 2.95833C2.88902 2.9255 2.8685 2.89266 2.83978 2.85982L2.73307 2.72029L2.65509 2.63L2.52787 2.48636L2.46222 2.41249C3.38743 1.59381 4.56465 1.11597 5.79872 1.05819L5.73307 6.23329ZM6.27069 1.04177C7.57127 1.10401 8.80626 1.63121 9.75084 2.5274L9.68108 2.60949L9.57027 2.74491L9.4964 2.8352L9.39791 2.96653L9.32815 3.06913L9.23785 3.20046C9.23785 3.23329 9.19271 3.26612 9.17219 3.30306L9.09011 3.43439L9.02857 3.54519C9.00394 3.59034 8.97519 3.63547 8.95467 3.68062L8.89313 3.79143L8.82745 3.92686C8.82745 3.9679 8.79051 4.00483 8.7741 4.04177L8.71255 4.1813L8.66741 4.30032C8.64717 4.34725 8.62936 4.3952 8.61406 4.44396C8.61406 4.4809 8.58531 4.52194 8.5689 4.55887C8.55248 4.59581 8.54018 4.65736 8.52376 4.70661L8.48684 4.82563C8.48684 4.87488 8.4581 4.92412 8.44578 4.97747C8.43347 5.03082 8.42526 5.05545 8.41705 5.09649C8.40885 5.13753 8.39245 5.19909 8.38424 5.24834C8.37603 5.29758 8.38424 5.33042 8.35962 5.36735C8.33499 5.40429 8.35961 5.47405 8.33089 5.5274C8.30216 5.58075 8.33089 5.60538 8.33089 5.64642C8.33089 5.68746 8.33089 5.75723 8.33089 5.81469V5.92549V6.11428C8.33291 6.14434 8.33291 6.17451 8.33089 6.20457H6.35688L6.27069 1.04177ZM6.27069 11.9624V6.7709H8.24469C8.24672 6.80097 8.24672 6.83113 8.24469 6.86119V7.04998V7.16079C8.24469 7.21824 8.24469 7.2757 8.24469 7.32905C8.24469 7.3824 8.24469 7.40703 8.24469 7.44807C8.24469 7.48911 8.2447 7.55477 8.27343 7.60812C8.30215 7.66147 8.27342 7.6861 8.29805 7.72714C8.32267 7.76818 8.31857 7.82973 8.33089 7.87898C8.3432 7.92823 8.33089 7.96106 8.35962 7.998C8.38834 8.03493 8.38834 8.1006 8.40065 8.14984L8.43759 8.26886L8.48684 8.4166C8.48684 8.45354 8.51145 8.49457 8.52787 8.53151C8.54317 8.58028 8.56098 8.62822 8.58122 8.67515L8.62636 8.79417L8.68793 8.9337C8.68793 8.97064 8.72487 9.00757 8.74128 9.04861C8.7577 9.08965 8.78642 9.1389 8.81104 9.18404C8.83567 9.22918 8.84799 9.25792 8.86851 9.29485C8.88902 9.33179 8.91775 9.38514 8.94237 9.43028L9.00392 9.53699C9.02854 9.58213 9.05727 9.62727 9.086 9.67241C9.11473 9.71756 9.13116 9.74218 9.15168 9.77501L9.24195 9.90634L9.31172 10.0089L9.41023 10.1403L9.4841 10.2306L9.59489 10.366L9.66468 10.4481C8.74953 11.3436 7.54752 11.8872 6.27069 11.9829V11.9624ZM10.1202 10.0869C9.31207 9.16469 8.84043 7.99574 8.78231 6.7709H11.4622C11.4026 7.99617 10.9296 9.16508 10.1202 10.0869ZM8.78231 6.23739C8.84043 5.01256 9.31207 3.84362 10.1202 2.92139C10.9296 3.84323 11.4026 5.01213 11.4622 6.23739H8.78231Z" fill="#6D6D6D"/>
</g>
<defs>
<clipPath id="clip0_58_779">
<rect width="12" height="12" fill="white" transform="translate(0 0.5)"/>
</clipPath>
</defs>
</svg>
