<svg width="28" height="35" viewBox="0 0 28 35" fill="none" xmlns="http://www.w3.org/2000/svg">
<mask id="mask0_103_599" style="mask-type:alpha" maskUnits="userSpaceOnUse" x="16" y="4" width="12" height="17">
<path d="M19.7943 21C19.3568 18.551 17.5613 15.6122 16.4675 15V4H28V21H19.7943Z" fill="white"/>
</mask>
<g mask="url(#mask0_103_599)">
<path fill-rule="evenodd" clip-rule="evenodd" d="M25.102 9.5C25.102 11.4214 23.5216 13 21.546 13C19.5703 13 17.9899 11.4214 17.9899 9.5C17.9899 7.57864 19.5703 6 21.546 6C23.5216 6 25.102 7.57864 25.102 9.5ZM23.8381 13.3899C25.1921 12.6099 26.102 11.1599 26.102 9.5C26.102 7.01472 24.0622 5 21.546 5C19.0297 5 16.9899 7.01472 16.9899 9.5C16.9899 11.1599 17.8998 12.6099 19.2538 13.3899C17.2382 14.1211 15.5989 15.9106 15.1124 19.0069C14.9409 20.0981 15.8604 21 16.965 21H26.127C27.2315 21 28.151 20.0981 27.9796 19.0069C27.4931 15.9106 25.8538 14.1211 23.8381 13.3899ZM21.546 14C20.2592 14 19.0552 14.3862 18.1073 15.1872C17.1649 15.9836 16.4001 17.2542 16.1003 19.1621C16.0416 19.5354 16.3565 20 16.965 20H26.127C26.7354 20 27.0503 19.5354 26.9917 19.1621C26.6919 17.2542 25.927 15.9836 24.9846 15.1872C24.0368 14.3862 22.8327 14 21.546 14Z" fill="#515F73"/>
</g>
<path fill-rule="evenodd" clip-rule="evenodd" d="M14.9661 6C14.9661 8.75898 12.723 11 9.95048 11C7.178 11 4.93489 8.75898 4.93489 6C4.93489 3.24102 7.178 1 9.95048 1C12.723 1 14.9661 3.24102 14.9661 6ZM12.6439 11.3664C14.6139 10.3809 15.9661 8.34794 15.9661 6C15.9661 2.68629 13.2728 0 9.95048 0C6.62816 0 3.93489 2.68629 3.93489 6C3.93489 8.348 5.28711 10.381 7.25719 11.3665C3.57657 12.4118 0.536754 15.7432 0.00660856 21.9987C-0.0866673 23.0993 0.82013 24 1.9247 24H17.9766C19.0812 24 19.988 23.0993 19.8947 21.9987C19.3646 15.743 16.3246 12.4117 12.6439 11.3664ZM1.00304 22.0831C1.31555 18.3956 2.53045 15.8892 4.12864 14.3102C5.72472 12.7333 7.78412 12 9.95067 12C12.1172 12 14.1766 12.7333 15.7727 14.3102C17.3709 15.8892 18.5858 18.3956 18.8983 22.0831C18.9374 22.5444 18.5531 23 17.9766 23H1.9247C1.34821 23 0.963942 22.5444 1.00304 22.0831Z" fill="#515F73"/>
</svg>
