<svg width="9" height="13" viewBox="0 0 9 13" fill="none" xmlns="http://www.w3.org/2000/svg">
<path d="M1.27539 12.355C1.30118 12.3986 1.33747 12.4346 1.38078 12.4597C1.42408 12.4847 1.47296 12.498 1.5227 12.4982H6.74134C6.78948 12.4986 6.83696 12.4867 6.8795 12.4636C6.92205 12.4406 6.95833 12.407 6.98507 12.366L8.36499 10.303C8.39371 10.2574 8.41004 10.2049 8.41228 10.1507C8.41453 10.0965 8.40262 10.0427 8.37778 9.99481C8.35294 9.94692 8.31607 9.90669 8.27098 9.87827C8.22589 9.84984 8.1742 9.83426 8.12127 9.83313H3.35424V9.24212H8.70908C8.74974 9.24216 8.78994 9.23335 8.82702 9.21626C8.86409 9.19917 8.8972 9.1742 8.92413 9.14301C8.95203 9.11292 8.97321 9.07699 8.98621 9.03769C8.9992 8.9984 9.00371 8.95667 8.9994 8.91542C8.8801 7.78556 8.6224 6.67558 8.23238 5.61166C7.39725 3.32105 6.06392 1.7279 4.37933 1.00107C4.32958 0.963182 4.26929 0.942598 4.20729 0.942337H3.35424V0.799169C3.35424 0.72031 3.32366 0.644681 3.26921 0.58892C3.21476 0.533158 3.14092 0.501831 3.06392 0.501831C2.98659 0.501825 2.91237 0.533037 2.85735 0.588696C2.80234 0.644354 2.77095 0.719974 2.77001 0.799169V9.83681H0.293313C0.2413 9.8368 0.19024 9.8511 0.145473 9.87822C0.100706 9.90534 0.063874 9.94429 0.0388306 9.99097C0.0133808 10.0369 0 10.0887 0 10.1415C0 10.1942 0.0133808 10.2461 0.0388306 10.292L1.27539 12.355ZM4.47969 7.51683V1.70221C6.33632 2.67498 7.34707 4.69394 7.85962 6.35684C7.98865 6.77164 8.0926 7.16443 8.17145 7.51683C8.27897 7.99037 8.3399 8.38682 8.37575 8.64378H4.47969V7.51683ZM3.35066 1.53701H3.89546V8.64378H3.35066V1.53701ZM7.56571 10.4315L6.58363 11.8998H1.68758L0.813025 10.4315H7.56571Z" fill="#6D6D6D"/>
</svg>
