<svg width="28" height="35" viewBox="0 0 28 35" fill="none" xmlns="http://www.w3.org/2000/svg">
<path fill-rule="evenodd" clip-rule="evenodd" d="M24 3H4C3.44772 3 3 3.44772 3 4V18C3 18.5523 3.44772 19 4 19H5C6.65685 19 8 20.3431 8 22V22.1716C8 23.0625 9.07714 23.5086 9.70711 22.8787L12.7071 19.8787C13.2697 19.3161 14.0328 19 14.8284 19H24C24.5523 19 25 18.5523 25 18V4C25 3.44771 24.5523 3 24 3ZM4 2C2.89543 2 2 2.89543 2 4V18C2 19.1046 2.89543 20 4 20H5C6.10457 20 7 20.8954 7 22V22.1716C7 23.9534 9.15428 24.8457 10.4142 23.5858L13.4142 20.5858C13.7893 20.2107 14.298 20 14.8284 20H24C25.1046 20 26 19.1046 26 18V4C26 2.89543 25.1046 2 24 2H4Z" fill="#515F73"/>
<path d="M8 8.5C8 8.22386 8.22386 8 8.5 8H19.5C19.7761 8 20 8.22386 20 8.5C20 8.77614 19.7761 9 19.5 9H8.5C8.22386 9 8 8.77614 8 8.5Z" fill="#515F73"/>
<path d="M8 12.5C8 12.2239 8.22386 12 8.5 12H16.5C16.7761 12 17 12.2239 17 12.5C17 12.7761 16.7761 13 16.5 13H8.5C8.22386 13 8 12.7761 8 12.5Z" fill="#515F73"/>
</svg>
