<svg width="24" height="23" viewBox="0 0 24 23" fill="none" xmlns="http://www.w3.org/2000/svg">
<path fill-rule="evenodd" clip-rule="evenodd" d="M22 1H2C1.44772 1 1 1.44772 1 2V16C1 16.5523 1.44772 17 2 17H3C4.65685 17 6 18.3431 6 20V20.1716C6 21.0625 7.07714 21.5086 7.70711 20.8787L10.7071 17.8787C11.2697 17.3161 12.0328 17 12.8284 17H22C22.5523 17 23 16.5523 23 16V2C23 1.44771 22.5523 1 22 1ZM2 0C0.895431 0 0 0.89543 0 2V16C0 17.1046 0.89543 18 2 18H3C4.10457 18 5 18.8954 5 20V20.1716C5 21.9534 7.15428 22.8457 8.41421 21.5858L11.4142 18.5858C11.7893 18.2107 12.298 18 12.8284 18H22C23.1046 18 24 17.1046 24 16V2C24 0.895431 23.1046 0 22 0H2Z" fill="#BCBCBC"/>
<path d="M6 6.5C6 6.22386 6.22386 6 6.5 6H17.5C17.7761 6 18 6.22386 18 6.5C18 6.77614 17.7761 7 17.5 7H6.5C6.22386 7 6 6.77614 6 6.5Z" fill="#BCBCBC"/>
<path d="M6 10.5C6 10.2239 6.22386 10 6.5 10H14.5C14.7761 10 15 10.2239 15 10.5C15 10.7761 14.7761 11 14.5 11H6.5C6.22386 11 6 10.7761 6 10.5Z" fill="#BCBCBC"/>
</svg>
