<svg width="24" height="24" viewBox="0 0 24 24" fill="none" xmlns="http://www.w3.org/2000/svg">
<path fill-rule="evenodd" clip-rule="evenodd" d="M22 3H2C1.44771 3 1 3.44772 1 4V22C1 22.5523 1.44772 23 2 23H22C22.5523 23 23 22.5523 23 22V4C23 3.44772 22.5523 3 22 3ZM2 2C0.895431 2 0 2.89543 0 4V22C0 23.1046 0.89543 24 2 24H22C23.1046 24 24 23.1046 24 22V4C24 2.89543 23.1046 2 22 2H2Z" fill="#515F73"/>
<path d="M6 0.5C6 0.223858 6.22386 0 6.5 0C6.77614 0 7 0.223858 7 0.5V4.5C7 4.77614 6.77614 5 6.5 5C6.22386 5 6 4.77614 6 4.5V0.5Z" fill="#515F73"/>
<path d="M17 0.5C17 0.223858 17.2239 0 17.5 0C17.7761 0 18 0.223858 18 0.5V4.5C18 4.77614 17.7761 5 17.5 5C17.2239 5 17 4.77614 17 4.5V0.5Z" fill="#515F73"/>
<path d="M1 7H23V8H1V7Z" fill="#515F73"/>
<path d="M12 10L13.4695 12.9775L16.7553 13.4549L14.3776 15.7725L14.9389 19.0451L12 17.5L9.06107 19.0451L9.62236 15.7725L7.24472 13.4549L10.5305 12.9775L12 10Z" fill="#515F73"/>
</svg>
