<svg width="60" height="18" viewBox="0 0 60 18" fill="none" xmlns="http://www.w3.org/2000/svg">
<rect opacity="0.3" width="60" height="18" rx="9" fill="black"/>
<path d="M24.3153 8.72727C24.3153 9.41761 24.1907 10.0142 23.9414 10.517C23.6921 11.0199 23.3501 11.4077 22.9155 11.6804C22.4808 11.9531 21.9844 12.0895 21.4261 12.0895C20.8679 12.0895 20.3714 11.9531 19.9368 11.6804C19.5021 11.4077 19.1602 11.0199 18.9109 10.517C18.6616 10.0142 18.5369 9.41761 18.5369 8.72727C18.5369 8.03693 18.6616 7.44034 18.9109 6.9375C19.1602 6.43466 19.5021 6.04688 19.9368 5.77415C20.3714 5.50142 20.8679 5.36506 21.4261 5.36506C21.9844 5.36506 22.4808 5.50142 22.9155 5.77415C23.3501 6.04688 23.6921 6.43466 23.9414 6.9375C24.1907 7.44034 24.3153 8.03693 24.3153 8.72727ZM23.5483 8.72727C23.5483 8.16051 23.4535 7.68217 23.2638 7.29226C23.0763 6.90234 22.8217 6.60724 22.5 6.40696C22.1804 6.20668 21.8224 6.10653 21.4261 6.10653C21.0298 6.10653 20.6708 6.20668 20.3491 6.40696C20.0295 6.60724 19.7749 6.90234 19.5852 7.29226C19.3977 7.68217 19.304 8.16051 19.304 8.72727C19.304 9.29403 19.3977 9.77237 19.5852 10.1623C19.7749 10.5522 20.0295 10.8473 20.3491 11.0476C20.6708 11.2479 21.0298 11.348 21.4261 11.348C21.8224 11.348 22.1804 11.2479 22.5 11.0476C22.8217 10.8473 23.0763 10.5522 23.2638 10.1623C23.4535 9.77237 23.5483 9.29403 23.5483 8.72727ZM30.8384 5.45455V12H30.0714L26.5046 6.8608H26.4407V12H25.6481V5.45455H26.4151L29.9947 10.6065H30.0586V5.45455H30.8384ZM32.4244 12V5.45455H33.2171V11.2969H36.2597V12H32.4244ZM38.2796 5.45455V12H37.4869V5.45455H38.2796ZM45.0591 5.45455V12H44.2921L40.7253 6.8608H40.6614V12H39.8688V5.45455H40.6358L44.2154 10.6065H44.2793V5.45455H45.0591ZM46.6452 12V5.45455H50.5954V6.15767H47.4378V8.36932H50.3909V9.07244H47.4378V11.2969H50.6466V12H46.6452Z" fill="white"/>
<circle cx="11" cy="9" r="3" fill="#0FB700"/>
</svg>
