<svg width="126" height="31" viewBox="0 0 126 31" fill="none" xmlns="http://www.w3.org/2000/svg">
<rect width="126" height="31" rx="15.5" fill="url(#paint0_linear_64_551)"/>
<path d="M16.7585 20V11.2727H18.6037V18.4787H22.3452V20H16.7585ZM26.516 20.1278C25.8427 20.1278 25.2631 19.9915 24.7773 19.7188C24.2944 19.4432 23.9222 19.054 23.6609 18.5511C23.3995 18.0455 23.2688 17.4474 23.2688 16.7571C23.2688 16.0838 23.3995 15.4929 23.6609 14.9844C23.9222 14.4759 24.2901 14.0795 24.7646 13.7955C25.2418 13.5114 25.8015 13.3693 26.4435 13.3693C26.8754 13.3693 27.2773 13.4389 27.6495 13.5781C28.0245 13.7145 28.3512 13.9205 28.6296 14.196C28.9109 14.4716 29.1296 14.8182 29.2859 15.2358C29.4421 15.6506 29.5202 16.1364 29.5202 16.6932V17.1918H23.9933V16.0668H27.8114C27.8114 15.8054 27.7546 15.5739 27.641 15.3722C27.5273 15.1705 27.3697 15.0128 27.168 14.8991C26.9691 14.7827 26.7376 14.7244 26.4734 14.7244C26.1978 14.7244 25.9535 14.7884 25.7404 14.9162C25.5302 15.0412 25.3654 15.2102 25.2461 15.4233C25.1268 15.6335 25.0657 15.8679 25.0629 16.1264V17.196C25.0629 17.5199 25.1225 17.7997 25.2418 18.0355C25.364 18.2713 25.5359 18.4531 25.7575 18.581C25.979 18.7088 26.2418 18.7727 26.5458 18.7727C26.7475 18.7727 26.9322 18.7443 27.0998 18.6875C27.2674 18.6307 27.4109 18.5455 27.5302 18.4318C27.6495 18.3182 27.7404 18.179 27.8029 18.0142L29.4819 18.125C29.3967 18.5284 29.2219 18.8807 28.9577 19.1818C28.6964 19.4801 28.3583 19.7131 27.9435 19.8807C27.5316 20.0455 27.0558 20.1278 26.516 20.1278ZM34.1864 13.4545V14.8182H30.2447V13.4545H34.1864ZM31.1396 11.8864H32.9549V17.9886C32.9549 18.1562 32.9805 18.2869 33.0316 18.3807C33.0827 18.4716 33.1538 18.5355 33.2447 18.5724C33.3384 18.6094 33.4464 18.6278 33.5685 18.6278C33.6538 18.6278 33.739 18.6207 33.8242 18.6065C33.9094 18.5895 33.9748 18.5767 34.0202 18.5682L34.3058 19.919C34.2148 19.9474 34.087 19.9801 33.9222 20.017C33.7575 20.0568 33.5572 20.081 33.3214 20.0895C32.8839 20.1065 32.5004 20.0483 32.1708 19.9148C31.8441 19.7812 31.5898 19.5739 31.408 19.2926C31.2262 19.0114 31.1367 18.6562 31.1396 18.2273V11.8864ZM37.1832 11.2727V12.1932C37.1832 12.4545 37.1321 12.7216 37.0298 12.9943C36.9304 13.2642 36.7969 13.5199 36.6293 13.7614C36.4616 14 36.2784 14.2031 36.0795 14.3707L35.2784 13.8977C35.4205 13.6733 35.5455 13.4247 35.6534 13.152C35.7642 12.8793 35.8196 12.5625 35.8196 12.2017V11.2727H37.1832ZM43.0181 15.321L41.3562 15.4233C41.3278 15.2812 41.2667 15.1534 41.1729 15.0398C41.0792 14.9233 40.9556 14.831 40.8022 14.7628C40.6516 14.6918 40.4712 14.6562 40.261 14.6562C39.9798 14.6562 39.7425 14.7159 39.5494 14.8352C39.3562 14.9517 39.2596 15.108 39.2596 15.304C39.2596 15.4602 39.3221 15.5923 39.4471 15.7003C39.5721 15.8082 39.7866 15.8949 40.0906 15.9602L41.2752 16.1989C41.9116 16.3295 42.386 16.5398 42.6985 16.8295C43.011 17.1193 43.1673 17.5 43.1673 17.9716C43.1673 18.4006 43.0408 18.777 42.788 19.1009C42.538 19.4247 42.1942 19.6776 41.7567 19.8594C41.3221 20.0384 40.8207 20.1278 40.2525 20.1278C39.386 20.1278 38.6957 19.9474 38.1815 19.5866C37.6701 19.223 37.3704 18.7287 37.2823 18.1037L39.0678 18.0099C39.1218 18.2741 39.2525 18.4759 39.4599 18.6151C39.6673 18.7514 39.9329 18.8196 40.2567 18.8196C40.5749 18.8196 40.8306 18.7585 41.0238 18.6364C41.2198 18.5114 41.3192 18.3509 41.3221 18.1548C41.3192 17.9901 41.2496 17.8551 41.1133 17.75C40.9769 17.642 40.7667 17.5597 40.4826 17.5028L39.3491 17.277C38.7099 17.1491 38.234 16.9276 37.9215 16.6122C37.6119 16.2969 37.457 15.8949 37.457 15.4062C37.457 14.9858 37.5707 14.6236 37.7979 14.3196C38.0281 14.0156 38.3505 13.7812 38.7653 13.6165C39.1829 13.4517 39.6715 13.3693 40.2312 13.3693C41.0579 13.3693 41.7085 13.544 42.1829 13.8935C42.6602 14.2429 42.9386 14.7187 43.0181 15.321ZM47.1218 20V11.2727H48.9371V14.554H48.9925C49.0721 14.3778 49.1871 14.1989 49.3377 14.017C49.4911 13.8324 49.69 13.679 49.9343 13.5568C50.1815 13.4318 50.4883 13.3693 50.8548 13.3693C51.332 13.3693 51.7724 13.4943 52.1758 13.7443C52.5792 13.9915 52.9016 14.3651 53.1431 14.8651C53.3846 15.3622 53.5053 15.9858 53.5053 16.7358C53.5053 17.4659 53.3874 18.0824 53.1516 18.5852C52.9187 19.0852 52.6005 19.4645 52.1971 19.723C51.7965 19.9787 51.3477 20.1065 50.8505 20.1065C50.4982 20.1065 50.1985 20.0483 49.9513 19.9318C49.707 19.8153 49.5067 19.669 49.3505 19.4929C49.1942 19.3139 49.0749 19.1335 48.9925 18.9517H48.9116V20H47.1218ZM48.8988 16.7273C48.8988 17.1165 48.9528 17.456 49.0607 17.7457C49.1687 18.0355 49.3249 18.2614 49.5295 18.4233C49.734 18.5824 49.9826 18.6619 50.2752 18.6619C50.5707 18.6619 50.8207 18.581 51.0252 18.419C51.2298 18.2543 51.3846 18.027 51.4897 17.7372C51.5977 17.4446 51.6516 17.108 51.6516 16.7273C51.6516 16.3494 51.5991 16.017 51.494 15.7301C51.3888 15.4432 51.234 15.2187 51.0295 15.0568C50.8249 14.8949 50.5735 14.8139 50.2752 14.8139C49.9798 14.8139 49.7298 14.892 49.5252 15.0483C49.3235 15.2045 49.1687 15.4261 49.0607 15.7131C48.9528 16 48.8988 16.3381 48.8988 16.7273ZM57.6996 20.1278C57.0263 20.1278 56.4467 19.9915 55.9609 19.7188C55.478 19.4432 55.1058 19.054 54.8445 18.5511C54.5831 18.0455 54.4524 17.4474 54.4524 16.7571C54.4524 16.0838 54.5831 15.4929 54.8445 14.9844C55.1058 14.4759 55.4737 14.0795 55.9482 13.7955C56.4254 13.5114 56.9851 13.3693 57.6271 13.3693C58.0589 13.3693 58.4609 13.4389 58.8331 13.5781C59.2081 13.7145 59.5348 13.9205 59.8132 14.196C60.0945 14.4716 60.3132 14.8182 60.4695 15.2358C60.6257 15.6506 60.7038 16.1364 60.7038 16.6932V17.1918H55.1768V16.0668H58.995C58.995 15.8054 58.9382 15.5739 58.8246 15.3722C58.7109 15.1705 58.5533 15.0128 58.3516 14.8991C58.1527 14.7827 57.9212 14.7244 57.657 14.7244C57.3814 14.7244 57.1371 14.7884 56.924 14.9162C56.7138 15.0412 56.549 15.2102 56.4297 15.4233C56.3104 15.6335 56.2493 15.8679 56.2464 16.1264V17.196C56.2464 17.5199 56.3061 17.7997 56.4254 18.0355C56.5476 18.2713 56.7195 18.4531 56.9411 18.581C57.1626 18.7088 57.4254 18.7727 57.7294 18.7727C57.9311 18.7727 58.1158 18.7443 58.2834 18.6875C58.451 18.6307 58.5945 18.5455 58.7138 18.4318C58.8331 18.3182 58.924 18.179 58.9865 18.0142L60.6655 18.125C60.5803 18.5284 60.4055 18.8807 60.1413 19.1818C59.88 19.4801 59.5419 19.7131 59.1271 19.8807C58.7152 20.0455 58.2393 20.1278 57.6996 20.1278ZM68.1857 13.4545V14.8182H64.146V13.4545H68.1857ZM65.0707 20V12.9815C65.0707 12.5071 65.163 12.1136 65.3477 11.8011C65.5352 11.4886 65.7908 11.2543 66.1147 11.098C66.4386 10.9418 66.8065 10.8636 67.2184 10.8636C67.4968 10.8636 67.7511 10.8849 67.9812 10.9276C68.2141 10.9702 68.3874 11.0085 68.5011 11.0426L68.1772 12.4062C68.1062 12.3835 68.0181 12.3622 67.913 12.3423C67.8107 12.3224 67.7056 12.3125 67.5977 12.3125C67.3306 12.3125 67.1445 12.375 67.0394 12.5C66.9343 12.6222 66.8817 12.794 66.8817 13.0156V20H65.0707ZM69.2947 20V13.4545H71.0547V14.5966H71.1229C71.2422 14.1903 71.4425 13.8835 71.7237 13.6761C72.005 13.4659 72.3288 13.3608 72.6953 13.3608C72.7862 13.3608 72.8842 13.3665 72.9893 13.3778C73.0945 13.3892 73.1868 13.4048 73.2663 13.4247V15.0355C73.1811 15.0099 73.0632 14.9872 72.9126 14.9673C72.7621 14.9474 72.6243 14.9375 72.4993 14.9375C72.2322 14.9375 71.9936 14.9957 71.7834 15.1122C71.576 15.2259 71.4112 15.3849 71.2891 15.5895C71.1697 15.794 71.1101 16.0298 71.1101 16.2969V20H69.2947ZM74.2049 20V13.4545H76.0202V20H74.2049ZM75.1168 12.6108C74.8469 12.6108 74.6154 12.5213 74.4222 12.3423C74.2319 12.1605 74.1367 11.9432 74.1367 11.6903C74.1367 11.4403 74.2319 11.2259 74.4222 11.0469C74.6154 10.8651 74.8469 10.7741 75.1168 10.7741C75.3867 10.7741 75.6168 10.8651 75.8072 11.0469C76.0004 11.2259 76.0969 11.4403 76.0969 11.6903C76.0969 11.9432 76.0004 12.1605 75.8072 12.3423C75.6168 12.5213 75.3867 12.6108 75.1168 12.6108ZM80.4574 20.1278C79.7841 20.1278 79.2045 19.9915 78.7188 19.7188C78.2358 19.4432 77.8636 19.054 77.6023 18.5511C77.3409 18.0455 77.2102 17.4474 77.2102 16.7571C77.2102 16.0838 77.3409 15.4929 77.6023 14.9844C77.8636 14.4759 78.2315 14.0795 78.706 13.7955C79.1832 13.5114 79.7429 13.3693 80.3849 13.3693C80.8168 13.3693 81.2188 13.4389 81.5909 13.5781C81.9659 13.7145 82.2926 13.9205 82.571 14.196C82.8523 14.4716 83.071 14.8182 83.2273 15.2358C83.3835 15.6506 83.4616 16.1364 83.4616 16.6932V17.1918H77.9347V16.0668H81.7528C81.7528 15.8054 81.696 15.5739 81.5824 15.3722C81.4688 15.1705 81.3111 15.0128 81.1094 14.8991C80.9105 14.7827 80.679 14.7244 80.4148 14.7244C80.1392 14.7244 79.8949 14.7884 79.6818 14.9162C79.4716 15.0412 79.3068 15.2102 79.1875 15.4233C79.0682 15.6335 79.0071 15.8679 79.0043 16.1264V17.196C79.0043 17.5199 79.0639 17.7997 79.1832 18.0355C79.3054 18.2713 79.4773 18.4531 79.6989 18.581C79.9205 18.7088 80.1832 18.7727 80.4872 18.7727C80.6889 18.7727 80.8736 18.7443 81.0412 18.6875C81.2088 18.6307 81.3523 18.5455 81.4716 18.4318C81.5909 18.3182 81.6818 18.179 81.7443 18.0142L83.4233 18.125C83.3381 18.5284 83.1634 18.8807 82.8991 19.1818C82.6378 19.4801 82.2997 19.7131 81.8849 19.8807C81.473 20.0455 80.9972 20.1278 80.4574 20.1278ZM86.4616 16.2159V20H84.6463V13.4545H86.3764V14.6094H86.4531C86.598 14.2287 86.8409 13.9276 87.1818 13.706C87.5227 13.4815 87.9361 13.3693 88.4219 13.3693C88.8764 13.3693 89.2727 13.4688 89.6108 13.6676C89.9489 13.8665 90.2116 14.1506 90.3991 14.5199C90.5866 14.8864 90.6804 15.3239 90.6804 15.8324V20H88.8651V16.1562C88.8679 15.7557 88.7656 15.4432 88.5582 15.2188C88.3509 14.9915 88.0653 14.8778 87.7017 14.8778C87.4574 14.8778 87.2415 14.9304 87.054 15.0355C86.8693 15.1406 86.7244 15.294 86.6193 15.4957C86.517 15.6946 86.4645 15.9347 86.4616 16.2159ZM94.5231 20.1065C94.0259 20.1065 93.5756 19.9787 93.1722 19.723C92.7717 19.4645 92.4535 19.0852 92.2177 18.5852C91.9847 18.0824 91.8683 17.4659 91.8683 16.7358C91.8683 15.9858 91.989 15.3622 92.2305 14.8651C92.4719 14.3651 92.793 13.9915 93.1935 13.7443C93.5969 13.4943 94.0387 13.3693 94.5188 13.3693C94.8853 13.3693 95.1907 13.4318 95.435 13.5568C95.6822 13.679 95.881 13.8324 96.0316 14.017C96.185 14.1989 96.3015 14.3778 96.381 14.554H96.4364V11.2727H98.2475V20H96.4577V18.9517H96.381C96.2958 19.1335 96.1751 19.3139 96.0188 19.4929C95.8654 19.669 95.6651 19.8153 95.418 19.9318C95.1737 20.0483 94.8754 20.1065 94.5231 20.1065ZM95.0984 18.6619C95.391 18.6619 95.6381 18.5824 95.8398 18.4233C96.0444 18.2614 96.2006 18.0355 96.3086 17.7457C96.4194 17.456 96.4748 17.1165 96.4748 16.7273C96.4748 16.3381 96.4208 16 96.3129 15.7131C96.2049 15.4261 96.0487 15.2045 95.8441 15.0483C95.6396 14.892 95.391 14.8139 95.0984 14.8139C94.8001 14.8139 94.5487 14.8949 94.3441 15.0568C94.1396 15.2187 93.9847 15.4432 93.8796 15.7301C93.7745 16.017 93.7219 16.3494 93.7219 16.7273C93.7219 17.108 93.7745 17.4446 93.8796 17.7372C93.9876 18.027 94.1424 18.2543 94.3441 18.419C94.5487 18.581 94.8001 18.6619 95.0984 18.6619ZM105.186 15.321L103.524 15.4233C103.496 15.2812 103.435 15.1534 103.341 15.0398C103.247 14.9233 103.124 14.831 102.97 14.7628C102.82 14.6918 102.639 14.6562 102.429 14.6562C102.148 14.6562 101.911 14.7159 101.717 14.8352C101.524 14.9517 101.428 15.108 101.428 15.304C101.428 15.4602 101.49 15.5923 101.615 15.7003C101.74 15.8082 101.955 15.8949 102.259 15.9602L103.443 16.1989C104.08 16.3295 104.554 16.5398 104.866 16.8295C105.179 17.1193 105.335 17.5 105.335 17.9716C105.335 18.4006 105.209 18.777 104.956 19.1009C104.706 19.4247 104.362 19.6776 103.925 19.8594C103.49 20.0384 102.989 20.1278 102.42 20.1278C101.554 20.1278 100.864 19.9474 100.349 19.5866C99.8381 19.223 99.5384 18.7287 99.4503 18.1037L101.236 18.0099C101.29 18.2741 101.42 18.4759 101.628 18.6151C101.835 18.7514 102.101 18.8196 102.425 18.8196C102.743 18.8196 102.999 18.7585 103.192 18.6364C103.388 18.5114 103.487 18.3509 103.49 18.1548C103.487 17.9901 103.418 17.8551 103.281 17.75C103.145 17.642 102.935 17.5597 102.651 17.5028L101.517 17.277C100.878 17.1491 100.402 16.9276 100.089 16.6122C99.7798 16.2969 99.625 15.8949 99.625 15.4062C99.625 14.9858 99.7386 14.6236 99.9659 14.3196C100.196 14.0156 100.518 13.7812 100.933 13.6165C101.351 13.4517 101.839 13.3693 102.399 13.3693C103.226 13.3693 103.876 13.544 104.351 13.8935C104.828 14.2429 105.107 14.7187 105.186 15.321ZM108.647 11.2727L108.481 17.3835H106.922L106.751 11.2727H108.647ZM107.701 20.1108C107.42 20.1108 107.179 20.0114 106.977 19.8125C106.775 19.6108 106.676 19.3693 106.679 19.0881C106.676 18.8097 106.775 18.571 106.977 18.3722C107.179 18.1733 107.42 18.0739 107.701 18.0739C107.971 18.0739 108.208 18.1733 108.413 18.3722C108.618 18.571 108.721 18.8097 108.724 19.0881C108.721 19.2756 108.672 19.4474 108.575 19.6037C108.481 19.7571 108.358 19.8807 108.204 19.9744C108.051 20.0653 107.883 20.1108 107.701 20.1108Z" fill="white"/>
<defs>
<linearGradient id="paint0_linear_64_551" x1="18.375" y1="4.52083" x2="28.5632" y2="45.9309" gradientUnits="userSpaceOnUse">
<stop stop-color="#F56252"/>
<stop offset="1" stop-color="#91359F"/>
</linearGradient>
</defs>
</svg>
