<svg width="24" height="24" viewBox="0 0 24 24" fill="none" xmlns="http://www.w3.org/2000/svg">
<path fill-rule="evenodd" clip-rule="evenodd" d="M9 5.99995H5.5C3.01472 5.99995 1 8.01467 1 10.5C1 12.9852 3.01472 15 5.5 15H9V5.99995ZM5.5 4.99995C2.46243 4.99995 0 7.46238 0 10.5C0 13.5375 2.46243 16 5.5 16H10V4.99995H5.5Z" fill="#515F73"/>
<path fill-rule="evenodd" clip-rule="evenodd" d="M21 1.51829L10 6.2468L10 14.8722L21 17.7093V1.51829ZM9.60508 5.32808C9.23793 5.48591 9 5.84717 9 6.2468V14.8722C9 15.3283 9.30861 15.7266 9.75025 15.8405L20.7503 18.6776C21.3832 18.8409 22 18.363 22 17.7093V1.51829C22 0.799908 21.2651 0.315872 20.6051 0.599579L9.60508 5.32808Z" fill="#515F73"/>
<path fill-rule="evenodd" clip-rule="evenodd" d="M8 16H5V22C5 22.5522 5.44772 23 6 23H7C7.55228 23 8 22.5522 8 22V16ZM4 15V22C4 23.1045 4.89543 24 6 24H7C8.10457 24 9 23.1045 9 22V15L4 15Z" fill="#515F73"/>
<path d="M22 6.99995L24 7.62495V11.375L22 12V6.99995Z" fill="#515F73"/>
<path d="M9 16H11C11 17.1045 10.1046 18 9 18V16Z" fill="#515F73"/>
</svg>
