<svg width="28" height="35" viewBox="0 0 28 35" fill="none" xmlns="http://www.w3.org/2000/svg">
<path fill-rule="evenodd" clip-rule="evenodd" d="M24 3H4C3.44771 3 3 3.44772 3 4V22C3 22.5523 3.44772 23 4 23H24C24.5523 23 25 22.5523 25 22V4C25 3.44772 24.5523 3 24 3ZM4 2C2.89543 2 2 2.89543 2 4V22C2 23.1046 2.89543 24 4 24H24C25.1046 24 26 23.1046 26 22V4C26 2.89543 25.1046 2 24 2H4Z" fill="#515F73"/>
<path d="M8 0.5C8 0.223858 8.22386 0 8.5 0C8.77614 0 9 0.223858 9 0.5V4.5C9 4.77614 8.77614 5 8.5 5C8.22386 5 8 4.77614 8 4.5V0.5Z" fill="#515F73"/>
<path d="M19 0.5C19 0.223858 19.2239 0 19.5 0C19.7761 0 20 0.223858 20 0.5V4.5C20 4.77614 19.7761 5 19.5 5C19.2239 5 19 4.77614 19 4.5V0.5Z" fill="#515F73"/>
<path d="M3 7H25V8H3V7Z" fill="#515F73"/>
<path d="M14 10L15.4695 12.9775L18.7553 13.4549L16.3776 15.7725L16.9389 19.0451L14 17.5L11.0611 19.0451L11.6224 15.7725L9.24472 13.4549L12.5305 12.9775L14 10Z" fill="#515F73"/>
</svg>
