<svg width="15" height="13" viewBox="0 0 15 13" fill="none" xmlns="http://www.w3.org/2000/svg">
<g clip-path="url(#clip0_58_783)">
<path d="M1.6273 12.4968C1.48951 12.4968 1.35499 12.4968 1.23032 12.4968C1.01796 12.4911 0.810559 12.4335 0.62753 12.3295C0.444501 12.2254 0.291816 12.0783 0.183734 11.9019C0.07699 11.7273 0.0179813 11.5295 0.0122425 11.3269C0.0065038 11.1243 0.0542212 10.9236 0.150923 10.7437C0.502836 10.1362 1.00139 9.61948 1.60433 9.23734C2.53937 8.60443 2.55906 5.66772 2.49016 4.5886C2.48822 4.55951 2.49225 4.53034 2.502 4.50275C2.51175 4.47516 2.52703 4.44969 2.54698 4.4278C2.56694 4.4059 2.59117 4.38801 2.61829 4.37515C2.64541 4.36229 2.6749 4.35472 2.70506 4.35285C2.73522 4.35098 2.76546 4.35485 2.79407 4.36426C2.82267 4.37366 2.84908 4.38841 2.87177 4.40766C2.89447 4.4269 2.91302 4.45028 2.92635 4.47644C2.93968 4.5026 2.94754 4.53103 2.94948 4.56012C2.97901 4.98417 3.1857 8.72152 1.87008 9.60443C1.327 9.94322 0.876784 10.4035 0.557744 10.9462C0.496861 11.0593 0.467008 11.1856 0.471027 11.313C0.475047 11.4404 0.51281 11.5647 0.580713 11.674C0.647754 11.7855 0.743224 11.8787 0.858064 11.9446C0.972904 12.0105 1.1033 12.047 1.23688 12.0506C2.91339 12.1044 5.86286 11.8639 6.81431 9.69937C7.60102 7.93597 8.54508 6.24184 9.63583 4.63607C9.79078 4.40387 9.86651 4.1307 9.85239 3.85489C9.83827 3.57908 9.73501 3.31445 9.5571 3.0981C8.75094 2.07167 7.56045 1.39019 6.24016 1.19937C6.21022 1.19542 6.18137 1.18582 6.15528 1.17112C6.12918 1.15642 6.10633 1.1369 6.08805 1.11369C6.06977 1.09047 6.05642 1.06401 6.04875 1.03582C6.04107 1.00762 6.03922 0.978245 6.04331 0.949363C6.0474 0.92048 6.05735 0.89266 6.07259 0.867487C6.08784 0.842314 6.10807 0.820283 6.13214 0.802651C6.15621 0.78502 6.18364 0.772132 6.21287 0.764727C6.2421 0.757321 6.27255 0.755544 6.3025 0.759492C7.73954 0.970413 9.03444 1.71413 9.91142 2.83227C10.1484 3.12233 10.2852 3.47664 10.3029 3.84552C10.3205 4.2144 10.2181 4.57936 10.0098 4.88924C8.93496 6.47443 8.00412 8.14627 7.2277 9.88607C6.25329 12.1076 3.44817 12.4968 1.6273 12.4968Z" fill="#6D6D6D"/>
<path d="M0.879283 11.4589H0.47902C0.37568 11.4552 0.273206 11.4392 0.173905 11.4114C0.122291 11.397 0.0774331 11.3658 0.0469384 11.3231C0.0164437 11.2804 0.0021845 11.2289 0.0065787 11.1772C0.0227232 11.0258 0.0683621 10.8787 0.141094 10.7437C0.493007 10.1362 0.991558 9.61947 1.5945 9.23734C2.52954 8.60442 2.54923 5.66771 2.48033 4.5886C2.47626 4.53375 2.49348 4.47939 2.52865 4.43611C2.56383 4.39283 2.61442 4.36371 2.67062 4.35442C5.98099 3.82277 6.03021 1.08227 6.03021 0.965183C6.03071 0.933513 6.03796 0.90228 6.0515 0.873427C6.06505 0.844574 6.0846 0.818718 6.10894 0.797461C6.13422 0.777144 6.16362 0.762147 6.19526 0.753428C6.2269 0.744709 6.26008 0.742459 6.29267 0.746827C7.49149 0.90756 8.59896 1.45393 9.43571 2.29746C9.46233 2.32404 9.48153 2.35671 9.49149 2.3924C9.56507 2.6338 9.58382 2.88768 9.54645 3.13671C9.50909 3.38574 9.41648 3.62406 9.27495 3.83543C8.20077 5.42103 7.26995 7.09281 6.49279 8.83227C5.5151 11.0664 2.70999 11.4589 0.879283 11.4589ZM0.521673 11.0221C2.20146 11.0696 5.11484 10.8228 6.06301 8.67088C6.8534 6.90921 7.7973 5.21537 8.88453 3.60759C8.98511 3.45802 9.05274 3.2901 9.08321 3.11427C9.11369 2.93843 9.10637 2.75843 9.0617 2.58543C8.36065 1.89432 7.45751 1.42619 6.47311 1.24367C6.37797 2.00632 5.84976 4.21518 2.95278 4.77531C2.99543 5.66771 3.05448 8.81962 1.86025 9.62025C1.31717 9.95904 0.866955 10.4194 0.547915 10.962L0.521673 11.0221Z" fill="#6D6D6D"/>
<path d="M2.70994 4.79114C2.66368 4.79093 2.6185 4.77763 2.58 4.75287C2.54151 4.72812 2.51141 4.69301 2.49342 4.65189L2.18173 3.88924C2.15727 3.82651 2.14639 3.7596 2.14977 3.69265C2.15316 3.62571 2.17074 3.56014 2.20142 3.5C2.23428 3.4387 2.28071 3.3851 2.33739 3.343C2.39408 3.3009 2.45966 3.27131 2.5295 3.25633C3.2316 3.07595 4.87202 2.4905 4.94092 0.952527C4.94446 0.879912 4.96523 0.809055 5.00166 0.745413C5.03808 0.68177 5.08916 0.627046 5.15098 0.585461C5.2128 0.543876 5.28369 0.516541 5.35819 0.505565C5.4327 0.494588 5.50881 0.500263 5.58068 0.522151L6.34184 0.746832C6.37105 0.755151 6.39826 0.76899 6.42187 0.787548C6.44549 0.806106 6.46504 0.829012 6.47939 0.854928C6.49375 0.880845 6.50261 0.909257 6.50547 0.938509C6.50832 0.967761 6.50511 0.997269 6.49604 1.02531C6.47786 1.08175 6.43737 1.129 6.38333 1.15684C6.32929 1.18467 6.26605 1.19086 6.20732 1.17405L5.44289 0.946201C5.43445 0.943024 5.42508 0.943024 5.41664 0.946201C5.41664 0.946201 5.41664 0.9462 5.41664 0.965187C5.33462 2.80063 3.44813 3.47468 2.66073 3.68038C2.66073 3.68038 2.64433 3.68038 2.64105 3.6962C2.63951 3.69971 2.63873 3.70347 2.63873 3.70727C2.63873 3.71108 2.63951 3.71485 2.64105 3.71835L2.95273 4.48101C2.97429 4.53603 2.97261 4.597 2.94808 4.65085C2.92354 4.70469 2.8781 4.7471 2.8215 4.76899C2.78739 4.78681 2.74858 4.79451 2.70994 4.79114Z" fill="#6D6D6D"/>
<path d="M2.61155 8.08545C2.5744 8.08743 2.53716 8.08743 2.50001 8.08545C2.46712 8.08533 2.43463 8.0785 2.40468 8.0654C2.37473 8.0523 2.34799 8.03323 2.32623 8.00945C2.30447 7.98566 2.28819 7.9577 2.27843 7.92741C2.26868 7.89712 2.26568 7.86518 2.26964 7.83369C2.27361 7.8022 2.28444 7.77188 2.30143 7.74472C2.31842 7.71755 2.34117 7.69417 2.3682 7.6761C2.39523 7.65804 2.42592 7.64569 2.45825 7.63988C2.49058 7.63408 2.52381 7.63494 2.55577 7.64242C2.55577 7.64242 3.29069 7.70571 4.35696 6.98735C4.38174 6.97052 4.4097 6.95856 4.43926 6.95216C4.46883 6.94575 4.49942 6.94503 4.52927 6.95002C4.55913 6.95502 4.58768 6.96564 4.61328 6.98127C4.63888 6.99691 4.66103 7.01725 4.67848 7.04115C4.69593 7.06505 4.70833 7.09202 4.71497 7.12054C4.72161 7.14906 4.72236 7.17856 4.71719 7.20735C4.71201 7.23615 4.701 7.26369 4.68479 7.28838C4.66858 7.31308 4.64748 7.33444 4.62271 7.35128C4.04524 7.78744 3.34371 8.04354 2.61155 8.08545Z" fill="#6D6D6D"/>
<path d="M2.70344 6.63923C2.673 6.63924 2.64287 6.63341 2.61479 6.62208C2.58671 6.61075 2.56125 6.59415 2.53988 6.57324C2.51851 6.55233 2.50167 6.52754 2.49032 6.5003C2.47897 6.47305 2.47334 6.44391 2.47378 6.41455C2.47378 6.3558 2.49798 6.29946 2.54105 6.25791C2.58412 6.21637 2.64253 6.19303 2.70344 6.19303C3.29758 6.16583 3.86935 5.96618 4.34386 5.62025C4.36775 5.6017 4.3952 5.58788 4.42464 5.57959C4.45408 5.5713 4.48492 5.5687 4.5154 5.57193C4.54588 5.57517 4.57541 5.58417 4.60227 5.59844C4.62913 5.6127 4.65281 5.63194 4.67195 5.65506C4.6916 5.67792 4.70628 5.70437 4.71513 5.73282C4.72397 5.76127 4.7268 5.79114 4.72343 5.82066C4.72006 5.85019 4.71058 5.87875 4.69553 5.90467C4.68049 5.93058 4.6602 5.95331 4.63586 5.97151C4.08203 6.38317 3.40873 6.61772 2.71 6.6424L2.70344 6.63923Z" fill="#6D6D6D"/>
<path d="M12.9528 7.73417H9.64896C9.61853 7.73459 9.58831 7.72917 9.56006 7.71822C9.53182 7.70728 9.50611 7.69103 9.48444 7.67041C9.46277 7.6498 9.44555 7.62524 9.43381 7.59816C9.42206 7.57107 9.41601 7.54201 9.41602 7.51265C9.41602 7.45306 9.44056 7.39591 9.48425 7.35377C9.52793 7.31164 9.58718 7.28796 9.64896 7.28796H12.9528C12.9832 7.28796 13.0133 7.2938 13.0414 7.30513C13.0695 7.31645 13.095 7.33306 13.1163 7.35396C13.1377 7.37487 13.1545 7.39966 13.1659 7.42691C13.1772 7.45415 13.1829 7.48329 13.1824 7.51265C13.1824 7.5714 13.1582 7.62774 13.1152 7.66928C13.0721 7.71083 13.0137 7.73417 12.9528 7.73417Z" fill="#6D6D6D"/>
<path d="M13.9698 6.46835H10.6693C10.6075 6.46835 10.5482 6.44467 10.5046 6.40254C10.4609 6.3604 10.4363 6.30325 10.4363 6.24366C10.4363 6.18407 10.4609 6.12692 10.5046 6.08479C10.5482 6.04265 10.6075 6.01898 10.6693 6.01898H13.9698C14.0316 6.01898 14.0908 6.04265 14.1345 6.08479C14.1782 6.12692 14.2027 6.18407 14.2027 6.24366C14.2027 6.30325 14.1782 6.3604 14.1345 6.40254C14.0908 6.44467 14.0316 6.46835 13.9698 6.46835Z" fill="#6D6D6D"/>
<path d="M14.6358 5.19937H11.332C11.3016 5.19937 11.2715 5.19354 11.2434 5.18221C11.2153 5.17088 11.1898 5.15428 11.1685 5.13337C11.1471 5.11246 11.1303 5.08767 11.1189 5.06043C11.1076 5.03319 11.1019 5.00404 11.1024 4.97468C11.1024 4.91593 11.1266 4.85959 11.1696 4.81804C11.2127 4.7765 11.2711 4.75317 11.332 4.75317H14.6358C14.6663 4.75275 14.6965 4.75817 14.7247 4.76911C14.753 4.78005 14.7787 4.7963 14.8004 4.81691C14.822 4.83753 14.8392 4.86209 14.851 4.88918C14.8627 4.91626 14.8688 4.94533 14.8688 4.97468C14.8688 5.03427 14.8442 5.09142 14.8006 5.13356C14.7569 5.1757 14.6976 5.19937 14.6358 5.19937Z" fill="#6D6D6D"/>
<path d="M14.7671 3.93039H11.4698C11.408 3.93039 11.3488 3.90672 11.3051 3.86458C11.2614 3.82245 11.2369 3.7653 11.2369 3.70571C11.2369 3.67635 11.2429 3.64728 11.2547 3.62019C11.2664 3.59311 11.2836 3.56855 11.3053 3.54794C11.327 3.52733 11.3527 3.51108 11.3809 3.50013C11.4092 3.48919 11.4394 3.48376 11.4698 3.48418H14.7703C14.8008 3.48376 14.831 3.48919 14.8592 3.50013C14.8875 3.51108 14.9132 3.52733 14.9349 3.54794C14.9565 3.56855 14.9737 3.59311 14.9855 3.62019C14.9972 3.64728 15.0033 3.67635 15.0033 3.70571C15.0033 3.73548 14.9972 3.76496 14.9852 3.79243C14.9733 3.81989 14.9559 3.84481 14.9339 3.86571C14.9119 3.88662 14.8858 3.9031 14.8572 3.9142C14.8286 3.92531 14.7979 3.93081 14.7671 3.93039Z" fill="#6D6D6D"/>
<path d="M14.1929 2.66138H10.8891C10.8325 2.65487 10.7804 2.62857 10.7425 2.58745C10.7047 2.54634 10.6838 2.49326 10.6838 2.43828C10.6838 2.3833 10.7047 2.33023 10.7425 2.28911C10.7804 2.248 10.8325 2.22169 10.8891 2.21518H14.1929C14.2495 2.22169 14.3017 2.248 14.3395 2.28911C14.3774 2.33023 14.3983 2.3833 14.3983 2.43828C14.3983 2.49326 14.3774 2.54634 14.3395 2.58745C14.3017 2.62857 14.2495 2.65487 14.1929 2.66138Z" fill="#6D6D6D"/>
</g>
<defs>
<clipPath id="clip0_58_783">
<rect width="15" height="12" fill="white" transform="translate(0 0.5)"/>
</clipPath>
</defs>
</svg>
