<svg width="14" height="13" viewBox="0 0 14 13" fill="none" xmlns="http://www.w3.org/2000/svg">
<g clip-path="url(#clip0_58_762)">
<path d="M4.79634 10.2378C5.76373 11.1778 7.0623 11.7253 8.42925 11.7697H8.61033C10.0428 11.7685 11.4167 11.2164 12.432 10.2341C13.1943 9.48839 13.7084 8.53716 13.9075 7.50386C14.1067 6.47056 13.9819 5.40291 13.5491 4.43949C13.1163 3.47606 12.3956 2.66136 11.4806 2.10112C10.5655 1.54088 9.49842 1.26098 8.4177 1.29775C8.11877 1.30837 7.82118 1.34218 7.52778 1.39887H7.50081C7.39214 1.4261 7.29126 1.47701 7.20583 1.54773C7.12039 1.61846 7.05263 1.70716 7.00767 1.80711C6.96938 1.93163 6.95817 2.06254 6.97476 2.1915C6.99134 2.32046 7.03534 2.44466 7.10399 2.55618V2.58614L7.12325 2.61985C7.30443 2.96412 7.36814 3.35554 7.3051 3.73737C7.24207 4.11919 7.05557 4.47158 6.77268 4.74344C6.47835 5.02766 6.09623 5.21014 5.68495 5.26291C5.27367 5.31568 4.85593 5.23582 4.49583 5.03558L4.11058 4.82584V4.92322C3.9971 4.91268 3.88263 4.92675 3.77542 4.96442C3.66252 5.01063 3.56016 5.0781 3.47421 5.16295C3.38825 5.2478 3.3204 5.34835 3.2746 5.4588V5.50749C3.10735 6.35681 3.15878 7.23316 3.42429 8.05849C3.68979 8.88381 4.16114 9.63248 4.79634 10.2378ZM3.80239 5.66105C3.84228 5.57168 3.91319 5.49878 4.00273 5.45506C4.05333 5.44234 4.10607 5.43976 4.15773 5.44749C4.20939 5.45521 4.25888 5.47308 4.30321 5.5L4.35329 5.52621L4.46118 5.57865L4.80791 5.74719V5.70224C5.24567 5.83081 5.71218 5.83451 6.15203 5.71289C6.59189 5.59128 6.98658 5.34947 7.28923 5.01619C7.59188 4.68292 7.78977 4.27218 7.85937 3.83279C7.92897 3.39339 7.86736 2.94381 7.68186 2.53745L7.70112 2.50374L7.60481 2.38389C7.59814 2.36885 7.58903 2.35494 7.57784 2.34269C7.51147 2.24019 7.48549 2.11781 7.50466 1.99813C7.52365 1.96735 7.54875 1.94056 7.57852 1.91934C7.60829 1.89811 7.6421 1.88288 7.67801 1.87453C8.70555 1.6743 9.77206 1.79985 10.7207 2.23272C11.6694 2.66559 12.4502 3.38294 12.9484 4.27931C13.4465 5.17568 13.6357 6.20377 13.4881 7.21244C13.3405 8.2211 12.8639 9.15712 12.1284 9.88288C11.3929 10.6086 10.4373 11.0858 9.40206 11.2443C8.36684 11.4028 7.30663 11.2342 6.37729 10.7634C5.44796 10.2925 4.69854 9.54419 4.2392 8.62845C3.77987 7.7127 3.63486 6.67785 3.8255 5.67603L3.80239 5.66105Z" fill="#6D6D6D"/>
<path d="M5.61695 8.50749C5.76104 8.47013 5.89614 8.40548 6.01447 8.31723C6.1328 8.22899 6.23204 8.1189 6.30649 7.99328C6.38094 7.86765 6.42914 7.72897 6.44832 7.58519C6.46751 7.44141 6.4573 7.29536 6.41827 7.15543C6.37984 7.01534 6.31334 6.88402 6.22257 6.76898C6.1318 6.65394 6.01855 6.55746 5.88933 6.48508C5.76011 6.4127 5.61745 6.36584 5.46956 6.34719C5.32167 6.32854 5.17144 6.33847 5.0275 6.37641C4.88349 6.41363 4.74845 6.47811 4.63012 6.56616C4.51178 6.65421 4.41249 6.76409 4.33791 6.88951C4.18967 7.14434 4.14959 7.44535 4.2262 7.72847C4.26448 7.86847 4.33079 7.99976 4.42136 8.1148C4.51193 8.22984 4.62498 8.32638 4.75399 8.39888C4.92672 8.49405 5.12175 8.54436 5.3203 8.54495C5.42047 8.54563 5.52028 8.53303 5.61695 8.50749ZM4.8811 8.18539C4.67835 8.07161 4.53018 7.88445 4.46891 7.6648C4.43823 7.55591 4.43025 7.44217 4.44546 7.33025C4.46068 7.21833 4.49878 7.1105 4.55751 7.01311C4.61426 6.91459 4.69099 6.82828 4.78303 6.7594C4.87507 6.69052 4.98052 6.6405 5.09301 6.61236C5.26176 6.56876 5.44 6.5746 5.60535 6.62915C5.7707 6.6837 5.91579 6.78453 6.02239 6.91898C6.129 7.05342 6.19236 7.21549 6.20453 7.38483C6.2167 7.55417 6.17713 7.72324 6.0908 7.87079C5.97222 8.06813 5.77846 8.21211 5.55146 8.27154C5.43946 8.30136 5.32246 8.30911 5.20733 8.29431C5.09221 8.27952 4.98128 8.24249 4.8811 8.18539Z" fill="#6D6D6D"/>
<path d="M6.58396 10.2378C6.66984 10.3816 6.788 10.5048 6.92964 10.598C7.07128 10.6912 7.23272 10.7522 7.40196 10.7763C7.5712 10.8004 7.74388 10.7871 7.90708 10.7373C8.07029 10.6875 8.21983 10.6026 8.34456 10.4888C8.50032 10.3487 8.61131 10.1679 8.6643 9.96817C8.71893 9.77546 8.71801 9.57186 8.66162 9.37964C8.60522 9.18741 8.49554 9.01397 8.34456 8.87828C8.20817 8.75436 8.04294 8.66441 7.863 8.61611C7.57202 8.5457 7.26427 8.58799 7.00476 8.73405C6.74526 8.88011 6.5543 9.1185 6.47222 9.39888C6.39562 9.682 6.43572 9.98301 6.58396 10.2378ZM6.71493 9.46255C6.77638 9.24274 6.92451 9.05535 7.12718 8.94106C7.32985 8.82677 7.57071 8.79479 7.79749 8.85206C7.94147 8.88663 8.07404 8.95623 8.18274 9.05431C8.2996 9.16167 8.38481 9.29746 8.42951 9.44761C8.47422 9.59776 8.47682 9.7568 8.43702 9.90824C8.39137 10.0629 8.30349 10.2027 8.18274 10.3127C8.07279 10.4119 7.93887 10.4824 7.79339 10.5178C7.64792 10.5531 7.4956 10.5522 7.35061 10.515C7.12466 10.4553 6.93219 10.3111 6.81524 10.1139C6.6983 9.91673 6.6664 9.68255 6.7265 9.46255H6.71493Z" fill="#6D6D6D"/>
<path d="M10.6792 7.897C10.4608 7.90713 10.2499 7.97724 10.0709 8.09919C9.89196 8.22115 9.75219 8.38994 9.6679 8.58599C9.5836 8.78204 9.55822 8.99732 9.5947 9.20683C9.63117 9.41634 9.72801 9.6115 9.87397 9.76966C10.0895 9.97218 10.3775 10.0854 10.6772 10.0854C10.977 10.0854 11.265 9.97218 11.4805 9.76966C11.6263 9.61174 11.7231 9.41691 11.7597 9.20771C11.7964 8.99851 11.7713 8.78351 11.6875 8.58758C11.6036 8.39165 11.4644 8.22281 11.286 8.1006C11.1075 7.97839 10.8972 7.9078 10.6792 7.897ZM11.3033 9.61236C11.2213 9.69199 11.124 9.75513 11.0169 9.79819C10.9098 9.84124 10.795 9.86337 10.6792 9.8633C10.5043 9.8631 10.3334 9.8126 10.188 9.71817C10.0426 9.62374 9.92914 9.48959 9.862 9.33261C9.79486 9.17564 9.77701 9.00286 9.81067 8.83604C9.84434 8.66922 9.92803 8.51581 10.0512 8.39513C10.2182 8.2341 10.444 8.14388 10.6792 8.1442C10.9131 8.1442 11.1375 8.23456 11.303 8.3954C11.4684 8.55625 11.5614 8.7744 11.5614 9.00187C11.5617 9.23053 11.4689 9.45002 11.3033 9.61236Z" fill="#6D6D6D"/>
<path d="M10.5751 6.39139C10.6432 6.62433 10.7869 6.82967 10.9847 6.9768C11.1826 7.12393 11.424 7.20497 11.6731 7.20787C11.772 7.2083 11.8705 7.1957 11.9659 7.17041C12.2543 7.09061 12.4995 6.90497 12.6497 6.65269C12.8 6.40041 12.8435 6.10123 12.771 5.81835C12.7326 5.67826 12.6661 5.54693 12.5753 5.4319C12.4846 5.31686 12.3713 5.22038 12.2421 5.148C12.1129 5.07562 11.9702 5.02876 11.8223 5.01011C11.6744 4.99146 11.5242 5.00139 11.3803 5.03933C11.0919 5.11912 10.8467 5.30476 10.6964 5.55704C10.5462 5.80933 10.5027 6.1085 10.5751 6.39139ZM11.4419 5.26779C11.6104 5.22406 11.7884 5.22985 11.9535 5.28443C12.1186 5.339 12.2633 5.43992 12.3695 5.57442C12.4756 5.70892 12.5384 5.87099 12.5498 6.04014C12.5613 6.2093 12.5209 6.37796 12.4338 6.52482C12.3467 6.67168 12.2168 6.79016 12.0605 6.86529C11.9042 6.94042 11.7285 6.96883 11.5555 6.94694C11.3826 6.92505 11.2203 6.85383 11.089 6.74229C10.9577 6.63074 10.8633 6.48387 10.8178 6.32022C10.7606 6.09923 10.7957 5.86519 10.9156 5.66934C11.0354 5.47349 11.2302 5.33179 11.4573 5.27528L11.4419 5.26779Z" fill="#6D6D6D"/>
<path d="M9.14965 4.897C9.44088 4.97148 9.75049 4.93251 10.0126 4.78839C10.1421 4.71563 10.2555 4.61856 10.3461 4.50282C10.4367 4.38709 10.5028 4.255 10.5404 4.11423C10.5984 3.90309 10.5906 3.67997 10.5181 3.47311C10.4456 3.26625 10.3117 3.08493 10.1332 2.95209C9.95467 2.81925 9.73966 2.74086 9.51534 2.72682C9.29101 2.71278 9.06746 2.76373 8.87292 2.87322C8.67838 2.98271 8.52161 3.14584 8.42244 3.34195C8.32327 3.53807 8.28614 3.75838 8.31576 3.975C8.34538 4.19163 8.44041 4.39486 8.58885 4.55897C8.73728 4.72309 8.93244 4.84072 9.14965 4.897ZM8.59103 3.60862C8.62114 3.49967 8.67302 3.39756 8.74371 3.30811C8.8144 3.21866 8.90254 3.14362 9.00307 3.08728C9.10359 3.03094 9.21455 2.9944 9.3296 2.97974C9.44465 2.96509 9.56153 2.97261 9.67359 3.00187C9.78565 3.03114 9.89069 3.08157 9.9827 3.1503C10.0747 3.21903 10.1519 3.3047 10.2098 3.40243C10.2678 3.50016 10.3054 3.60803 10.3205 3.71987C10.3355 3.83172 10.3278 3.94536 10.2977 4.05431C10.2369 4.27433 10.0887 4.46186 9.88568 4.57565C9.68266 4.68943 9.44146 4.72015 9.21514 4.66105C8.98882 4.60195 8.79592 4.45786 8.67888 4.26049C8.56184 4.06312 8.53024 3.82864 8.59103 3.60862Z" fill="#6D6D6D"/>
<path d="M1.74133 0.619858L1.66042 0.713491L1.73747 0.619858L1.58722 0.503754L1.43313 0.616111C1.37535 0.661055 0.00384521 1.67978 0.00384521 2.99064C0.00384521 3.87079 0.319756 4.28278 0.731974 4.48877C0.731974 4.57866 0.70116 4.6648 0.689602 4.75094C0.532974 5.80744 0.492938 6.87719 0.570176 7.94196C0.832146 11.5038 1.03632 12.4363 1.56796 12.4963L1.84535 12.5262V12.4026C2.25372 12.1142 2.3924 10.927 2.58503 7.90825C2.65355 6.84626 2.61872 5.78035 2.481 4.72473L2.45018 4.51499V4.48503C2.85854 4.29776 3.17445 3.88578 3.17445 2.9869C3.16289 1.72473 1.88772 0.732217 1.74133 0.619858ZM2.08035 7.85956C1.99945 9.12922 1.85305 11.4251 1.59493 11.9082C1.3214 11.3577 1.14805 8.95694 1.071 7.88578C0.99327 6.85741 1.03072 5.82387 1.18271 4.80338C1.1905 4.73293 1.20209 4.66292 1.21739 4.59364C1.34568 4.60157 1.47436 4.60157 1.60264 4.59364C1.72195 4.6011 1.84162 4.6011 1.96092 4.59364C1.96092 4.65357 1.96093 4.71349 1.98789 4.77342L2.01486 4.98315C2.1284 5.93778 2.15675 6.90018 2.09961 7.85956H2.08035ZM2.60429 3.18166C2.63891 3.12494 2.65752 3.06034 2.65823 2.99439C2.65823 3.94945 2.2961 4.11799 1.57953 4.11799C0.862964 4.11799 0.50081 3.94196 0.50081 2.99439C0.501332 2.89503 0.511659 2.79595 0.531636 2.69851C0.608011 2.73709 0.692201 2.75883 0.778202 2.76218C1.12108 2.76218 1.23666 2.47379 1.31371 2.27529C1.35223 2.17042 1.39846 2.05057 1.43699 2.04682C1.54218 2.1882 1.62046 2.34676 1.66813 2.51499C1.81838 2.88952 1.98788 3.3427 2.31149 3.3427H2.38855C2.43457 3.33318 2.47784 3.31377 2.51517 3.28591C2.55249 3.25804 2.58293 3.22243 2.60429 3.18166ZM2.3038 2.40637C2.36544 2.61986 2.45789 2.9457 2.38855 3.05431C2.38363 3.06346 2.37651 3.0713 2.36778 3.07717C2.35906 3.08305 2.34899 3.08677 2.33846 3.08802C2.1728 3.12173 2.0187 2.71349 1.90313 2.42135C1.78755 2.12922 1.66427 1.79589 1.44853 1.79589C1.22894 1.79589 1.15189 2.01312 1.0864 2.17042C1.02091 2.32772 0.943855 2.50375 0.79746 2.49626C0.739303 2.49354 0.682936 2.4758 0.63418 2.44486C0.585424 2.41392 0.546054 2.3709 0.520091 2.32023C0.763382 1.78901 1.12995 1.31981 1.59107 0.949445C1.8844 1.18962 2.14351 1.46672 2.36158 1.77342C2.33242 1.78187 2.30591 1.79732 2.28452 1.81836C2.16895 1.93821 2.2229 2.12173 2.3038 2.40637Z" fill="#6D6D6D"/>
</g>
<defs>
<clipPath id="clip0_58_762">
<rect width="14" height="12" fill="white" transform="translate(0 0.5)"/>
</clipPath>
</defs>
</svg>
