<svg width="28" height="35" viewBox="0 0 28 35" fill="none" xmlns="http://www.w3.org/2000/svg">
<path fill-rule="evenodd" clip-rule="evenodd" d="M11 5.60351H7.5C5.01472 5.60351 3 7.66261 3 10.2026C3 12.7427 5.01472 14.8018 7.5 14.8018H11V5.60351ZM7.5 4.58148C4.46243 4.58148 2 7.09816 2 10.2026C2 13.3071 4.46243 15.8238 7.5 15.8238H12V4.58148H7.5Z" fill="#515F73"/>
<path fill-rule="evenodd" clip-rule="evenodd" d="M23 1.02313L12 5.85579L12 14.6712L23 17.5708V1.02313ZM11.6051 4.91684C11.2379 5.07814 11 5.44736 11 5.85579V14.6712C11 15.1373 11.3086 15.5444 11.7503 15.6608L22.7503 18.5604C23.3832 18.7273 24 18.2388 24 17.5708V1.02313C24 0.288923 23.2651 -0.205775 22.6051 0.084181L11.6051 4.91684Z" fill="#515F73"/>
<path fill-rule="evenodd" clip-rule="evenodd" d="M10 15.8238H7V21.9559C7 22.5204 7.44772 22.978 8 22.978H9C9.55228 22.978 10 22.5204 10 21.9559V15.8238ZM6 14.8018V21.9559C6 23.0848 6.89543 24 8 24H9C10.1046 24 11 23.0848 11 21.9559V14.8018L6 14.8018Z" fill="#515F73"/>
<path d="M24 6.62554L26 7.2643V11.0969L24 11.7357V6.62554Z" fill="#515F73"/>
<path d="M11 15.8238H13C13 16.9527 12.1046 17.8678 11 17.8678V15.8238Z" fill="#515F73"/>
</svg>
