<svg width="18" height="13" viewBox="0 0 18 13" fill="none" xmlns="http://www.w3.org/2000/svg">
<path d="M5.9547 7.99756C5.90961 7.99699 5.86522 7.98618 5.82487 7.96594C5.79051 7.9486 5.76007 7.92432 5.73548 7.89462C5.71089 7.86492 5.69267 7.83044 5.68196 7.79334C5.67125 7.75624 5.66828 7.71731 5.67323 7.679C5.67819 7.64069 5.69097 7.60382 5.71077 7.57071L6.30881 6.46801L5.54553 5.67754C5.51273 5.64329 5.47257 5.61701 5.42813 5.6007C5.38369 5.58439 5.33613 5.57849 5.28908 5.58345C5.24202 5.5884 5.19672 5.60408 5.15662 5.62929C5.11651 5.6545 5.08265 5.68858 5.05764 5.72893L4.3455 6.83953C4.16318 7.12016 3.8792 7.3184 3.5538 7.39218C3.2284 7.46597 2.88717 7.4095 2.60252 7.23476C2.45612 7.14389 2.32941 7.02434 2.22996 6.88325C2.1305 6.74216 2.06031 6.58241 2.0236 6.4135C1.98689 6.2446 1.98439 6.07 2.01625 5.90011C2.04812 5.73022 2.1137 5.5685 2.20908 5.4246L4.01894 2.74096C4.10481 2.61377 4.21558 2.50551 4.3445 2.42279C4.47343 2.34006 4.61779 2.28461 4.76877 2.25982C4.91976 2.23504 5.07418 2.24144 5.22262 2.27864C5.37105 2.31583 5.51038 2.38304 5.63209 2.47616L12.1043 7.42447C12.1341 7.44661 12.1591 7.47456 12.1779 7.50663C12.1966 7.53871 12.2088 7.57426 12.2136 7.61116C12.2183 7.64806 12.2156 7.68555 12.2057 7.72138C12.1957 7.75721 12.1786 7.79065 12.1555 7.8197C12.1334 7.84946 12.1056 7.87452 12.0738 7.89344C12.042 7.91235 12.0068 7.92473 11.9702 7.92988C11.9336 7.93503 11.8964 7.93283 11.8607 7.92342C11.8249 7.914 11.7914 7.89756 11.762 7.87504L5.28977 2.92277C5.22886 2.87583 5.15909 2.84182 5.08469 2.82279C5.0103 2.80377 4.93283 2.80014 4.85699 2.81211C4.77822 2.82376 4.70265 2.85152 4.63498 2.89367C4.56731 2.93582 4.50896 2.99145 4.46354 3.05715L2.65368 5.74473C2.5999 5.82554 2.5628 5.91636 2.54457 6.01181C2.52633 6.10727 2.52733 6.20543 2.54751 6.30049C2.56768 6.39555 2.60662 6.48559 2.66202 6.56527C2.71742 6.64496 2.78816 6.71268 2.87007 6.76443C3.03123 6.86181 3.22367 6.89274 3.40704 6.85074C3.5904 6.80874 3.75047 6.69708 3.85369 6.53915L4.56583 5.4246C4.63699 5.31471 4.73175 5.22223 4.84316 5.15396C4.95457 5.08569 5.07979 5.04337 5.20962 5.0301C5.33944 5.01683 5.47059 5.03295 5.5934 5.07728C5.71621 5.12161 5.82757 5.19302 5.9193 5.28626L6.82423 6.21901C6.86631 6.26124 6.89364 6.31602 6.90215 6.37515C6.91066 6.43428 6.89989 6.49459 6.87145 6.54705L6.17503 7.83156C6.15639 7.87646 6.12612 7.91552 6.08738 7.94471C6.04864 7.9739 6.00283 7.99214 5.9547 7.99756Z" fill="#6D6D6D"/>
<path d="M11.943 5.62221C11.4386 5.62221 10.9455 5.47191 10.5261 5.19031C10.1068 4.90872 9.77998 4.50849 9.58713 4.04028C9.39428 3.57207 9.34402 3.05692 9.44271 2.56001C9.5414 2.06309 9.78462 1.60675 10.1416 1.24873C10.4985 0.89071 10.9532 0.647106 11.448 0.548732C11.9428 0.450358 12.4556 0.501637 12.9214 0.696088C13.3872 0.890538 13.7851 1.21942 14.0648 1.64111C14.3444 2.0628 14.4933 2.55835 14.4925 3.06506C14.4925 3.4012 14.4265 3.73405 14.2984 4.04455C14.1702 4.35506 13.9823 4.63713 13.7455 4.87464C13.5087 5.11214 13.2276 5.30042 12.9183 5.4287C12.609 5.55697 12.2776 5.62273 11.943 5.62221ZM11.943 1.06123C11.5483 1.06044 11.1622 1.17731 10.8337 1.39701C10.5051 1.61672 10.2488 1.9294 10.0972 2.29548C9.94565 2.66157 9.90558 3.06459 9.98211 3.45356C10.0586 3.84252 10.2483 4.19994 10.5271 4.48058C10.8059 4.76121 11.1614 4.95245 11.5484 5.03009C11.9355 5.10773 12.3368 5.06828 12.7015 4.91673C13.0662 4.76518 13.378 4.50835 13.5974 4.17874C13.8167 3.84912 13.9338 3.46155 13.9338 3.06506C13.9338 2.53429 13.7242 2.02521 13.351 1.64953C12.9777 1.27386 12.4713 1.06227 11.943 1.06123Z" fill="#6D6D6D"/>
<path d="M16.5975 9.23857C16.3947 9.23829 16.1939 9.19763 16.0069 9.11894C15.8198 9.04025 15.6501 8.92508 15.5076 8.7801C15.3656 8.92505 15.1962 9.04017 15.0095 9.11875C14.8227 9.19732 14.6222 9.23779 14.4197 9.23779C14.2173 9.23779 14.0168 9.19732 13.83 9.11875C13.6432 9.04017 13.4739 8.92505 13.3319 8.7801C13.1898 8.92505 13.0205 9.04017 12.8337 9.11875C12.6469 9.19732 12.4465 9.23779 12.244 9.23779C12.0415 9.23779 11.841 9.19732 11.6542 9.11875C11.4675 9.04017 11.2981 8.92505 11.1561 8.7801C11.014 8.92505 10.8447 9.04017 10.6579 9.11875C10.4711 9.19732 10.2707 9.23779 10.0682 9.23779C9.86571 9.23779 9.66524 9.19732 9.47847 9.11875C9.2917 9.04017 9.12236 8.92505 8.98031 8.7801C8.83826 8.92505 8.66892 9.04017 8.48215 9.11875C8.29538 9.19732 8.09492 9.23779 7.89243 9.23779C7.68994 9.23779 7.48947 9.19732 7.3027 9.11875C7.11593 9.04017 6.94659 8.92505 6.80454 8.7801C6.66248 8.92505 6.49314 9.04017 6.30638 9.11875C6.11961 9.19732 5.91915 9.23779 5.71666 9.23779C5.51417 9.23779 5.3137 9.19732 5.12693 9.11875C4.94016 9.04017 4.77082 8.92505 4.62877 8.7801C4.48671 8.92505 4.31737 9.04017 4.1306 9.11875C3.94383 9.19732 3.74337 9.23779 3.54089 9.23779C3.3384 9.23779 3.13793 9.19732 2.95116 9.11875C2.76439 9.04017 2.59505 8.92505 2.453 8.7801C2.28807 8.94886 2.08652 9.07701 1.86412 9.15455C1.64171 9.23208 1.40447 9.25689 1.17094 9.22704C0.937401 9.19719 0.713908 9.11348 0.517918 8.98247C0.321927 8.85146 0.158749 8.67669 0.0411517 8.47182C0.0230677 8.44016 0.0113734 8.40523 0.00672733 8.36903C0.00208125 8.33283 0.00457655 8.29606 0.0140757 8.26083C0.0235748 8.2256 0.0398939 8.19259 0.0620921 8.16369C0.0842903 8.13479 0.111934 8.11057 0.143452 8.0924C0.17497 8.07424 0.209738 8.06248 0.245777 8.05781C0.281816 8.05315 0.318419 8.05565 0.353493 8.0652C0.388566 8.07474 0.421429 8.09113 0.450198 8.11343C0.478967 8.13573 0.503076 8.1635 0.52116 8.19516C0.608267 8.34276 0.732002 8.46514 0.880268 8.55035C1.02853 8.63555 1.19626 8.68067 1.36707 8.68129C1.50397 8.68116 1.63929 8.65185 1.76409 8.5953C1.88888 8.53875 2.00032 8.45626 2.09103 8.35326C2.13677 8.30241 2.19261 8.26176 2.25496 8.23394C2.31731 8.20613 2.38477 8.19176 2.453 8.19176C2.52122 8.19176 2.58868 8.20613 2.65103 8.23394C2.71338 8.26176 2.76923 8.30241 2.81497 8.35326C2.90614 8.45615 3.01796 8.53849 3.14307 8.59488C3.26818 8.65127 3.40376 8.68042 3.54089 8.68042C3.67801 8.68042 3.81358 8.65127 3.93869 8.59488C4.06381 8.53849 4.17563 8.45615 4.2668 8.35326C4.31376 8.30449 4.37 8.26571 4.43219 8.23923C4.49437 8.21274 4.56122 8.19909 4.62877 8.19909C4.69631 8.19909 4.76316 8.21274 4.82535 8.23923C4.88753 8.26571 4.94378 8.30449 4.99074 8.35326C5.08192 8.45615 5.19373 8.53849 5.31884 8.59488C5.44395 8.65127 5.57953 8.68042 5.71666 8.68042C5.85379 8.68042 5.98935 8.65127 6.11447 8.59488C6.23958 8.53849 6.3514 8.45615 6.44257 8.35326C6.48953 8.30449 6.54577 8.26571 6.60796 8.23923C6.67014 8.21274 6.73699 8.19909 6.80454 8.19909C6.87208 8.19909 6.93893 8.21274 7.00112 8.23923C7.0633 8.26571 7.11956 8.30449 7.16652 8.35326C7.25769 8.45615 7.3695 8.53849 7.49461 8.59488C7.61972 8.65127 7.7553 8.68042 7.89243 8.68042C8.02956 8.68042 8.16512 8.65127 8.29024 8.59488C8.41535 8.53849 8.52717 8.45615 8.61834 8.35326C8.6653 8.30449 8.72154 8.26571 8.78373 8.23923C8.84591 8.21274 8.91277 8.19909 8.98031 8.19909C9.04785 8.19909 9.11471 8.21274 9.17689 8.23923C9.23907 8.26571 9.29533 8.30449 9.34229 8.35326C9.43346 8.45615 9.54527 8.53849 9.67038 8.59488C9.79549 8.65127 9.93107 8.68042 10.0682 8.68042C10.2053 8.68042 10.3409 8.65127 10.466 8.59488C10.5911 8.53849 10.7029 8.45615 10.7941 8.35326C10.8411 8.30449 10.8973 8.26571 10.9595 8.23923C11.0217 8.21274 11.0885 8.19909 11.1561 8.19909C11.2236 8.19909 11.2905 8.21274 11.3527 8.23923C11.4148 8.26571 11.4711 8.30449 11.5181 8.35326C11.6092 8.45615 11.721 8.53849 11.8462 8.59488C11.9713 8.65127 12.1068 8.68042 12.244 8.68042C12.3811 8.68042 12.5167 8.65127 12.6418 8.59488C12.7669 8.53849 12.8787 8.45615 12.9699 8.35326C13.0168 8.30449 13.0731 8.26571 13.1353 8.23923C13.1975 8.21274 13.2643 8.19909 13.3319 8.19909C13.3994 8.19909 13.4662 8.21274 13.5284 8.23923C13.5906 8.26571 13.6469 8.30449 13.6938 8.35326C13.785 8.45615 13.8968 8.53849 14.0219 8.59488C14.147 8.65127 14.2826 8.68042 14.4197 8.68042C14.5569 8.68042 14.6924 8.65127 14.8176 8.59488C14.9427 8.53849 15.0545 8.45615 15.1457 8.35326C15.1926 8.30449 15.2489 8.26571 15.311 8.23923C15.3732 8.21274 15.4401 8.19909 15.5076 8.19909C15.5752 8.19909 15.642 8.21274 15.7042 8.23923C15.7664 8.26571 15.8226 8.30449 15.8696 8.35326C15.972 8.46929 16.1004 8.55925 16.2442 8.61574C16.388 8.67223 16.5431 8.69364 16.6967 8.67821C16.8503 8.66277 16.9981 8.61094 17.1279 8.52697C17.2577 8.44299 17.3659 8.32927 17.4434 8.19516C17.4613 8.1612 17.486 8.13135 17.516 8.10751C17.546 8.08367 17.5806 8.06636 17.6176 8.05669C17.6546 8.04703 17.6932 8.04521 17.731 8.05136C17.7687 8.0575 17.8048 8.07148 17.8368 8.0924C17.8707 8.11035 17.9004 8.13518 17.9241 8.16531C17.9478 8.19543 17.9651 8.23019 17.9747 8.26737C17.9843 8.30455 17.9861 8.34334 17.98 8.38126C17.9739 8.41918 17.96 8.45541 17.9391 8.48763C17.8015 8.72073 17.6048 8.91303 17.3692 9.04494C17.1335 9.17685 16.8672 9.24366 16.5975 9.23857Z" fill="#6D6D6D"/>
<path d="M16.5975 10.8709C16.3947 10.8706 16.1939 10.83 16.0069 10.7513C15.8198 10.6726 15.6501 10.5574 15.5076 10.4124C15.3656 10.5574 15.1962 10.6725 15.0095 10.7511C14.8227 10.8296 14.6222 10.8701 14.4198 10.8701C14.2173 10.8701 14.0168 10.8296 13.83 10.7511C13.6433 10.6725 13.4739 10.5574 13.3319 10.4124C13.1898 10.5574 13.0205 10.6725 12.8337 10.7511C12.6469 10.8296 12.4465 10.8701 12.244 10.8701C12.0415 10.8701 11.841 10.8296 11.6543 10.7511C11.4675 10.6725 11.2981 10.5574 11.1561 10.4124C11.014 10.5574 10.8447 10.6725 10.6579 10.7511C10.4712 10.8296 10.2707 10.8701 10.0682 10.8701C9.86572 10.8701 9.66525 10.8296 9.47848 10.7511C9.29171 10.6725 9.12237 10.5574 8.98032 10.4124C8.83827 10.5574 8.66893 10.6725 8.48216 10.7511C8.29539 10.8296 8.09493 10.8701 7.89244 10.8701C7.68995 10.8701 7.48948 10.8296 7.30271 10.7511C7.11594 10.6725 6.9466 10.5574 6.80455 10.4124C6.6625 10.5574 6.49316 10.6725 6.30639 10.7511C6.11962 10.8296 5.91916 10.8701 5.71667 10.8701C5.51418 10.8701 5.31371 10.8296 5.12694 10.7511C4.94017 10.6725 4.77083 10.5574 4.62878 10.4124C4.48672 10.5574 4.31738 10.6725 4.13061 10.7511C3.94385 10.8296 3.74339 10.8701 3.5409 10.8701C3.33841 10.8701 3.13794 10.8296 2.95117 10.7511C2.7644 10.6725 2.59506 10.5574 2.45301 10.4124C2.31138 10.5575 2.14242 10.6727 1.95597 10.7514C1.76952 10.8301 1.56933 10.8708 1.36708 10.8709C1.09877 10.87 0.835341 10.7988 0.602807 10.6643C0.370273 10.5298 0.176686 10.3368 0.0411625 10.1041C0.0214807 10.0716 0.00851 10.0354 0.00300388 9.99774C-0.00250223 9.96006 -0.000423837 9.92165 0.0091155 9.8848C0.0186548 9.84794 0.035459 9.81338 0.0585367 9.78317C0.0816145 9.75296 0.110493 9.72771 0.143463 9.70891C0.17554 9.68799 0.211603 9.67402 0.249354 9.66787C0.287104 9.66172 0.325712 9.66354 0.362725 9.67321C0.399737 9.68288 0.43434 9.70018 0.464329 9.72402C0.494318 9.74786 0.519039 9.77771 0.536912 9.81167C0.613499 9.94675 0.721095 10.0615 0.850742 10.1464C0.980388 10.2313 1.12833 10.2838 1.28228 10.2997C1.43622 10.3155 1.59172 10.2942 1.73581 10.2375C1.8799 10.1808 2.00843 10.0904 2.11071 9.97372C2.15645 9.92287 2.21229 9.88223 2.27464 9.85441C2.33699 9.82659 2.40445 9.81222 2.47267 9.81222C2.5409 9.81222 2.60837 9.82659 2.67072 9.85441C2.73307 9.88223 2.78891 9.92287 2.83465 9.97372C2.92582 10.0766 3.03763 10.159 3.16275 10.2153C3.28786 10.2717 3.42344 10.3009 3.56057 10.3009C3.69769 10.3009 3.83327 10.2717 3.95838 10.2153C4.0835 10.159 4.19531 10.0766 4.28648 9.97372C4.33344 9.92495 4.38968 9.88617 4.45186 9.85969C4.51405 9.8332 4.58091 9.81955 4.64846 9.81955C4.716 9.81955 4.78285 9.8332 4.84504 9.85969C4.90722 9.88617 4.96346 9.92495 5.01042 9.97372C5.10159 10.0766 5.21341 10.159 5.33852 10.2153C5.46363 10.2717 5.59921 10.3009 5.73634 10.3009C5.87346 10.3009 6.00904 10.2717 6.13416 10.2153C6.25927 10.159 6.37108 10.0766 6.46225 9.97372C6.50921 9.92495 6.56545 9.88617 6.62764 9.85969C6.68982 9.8332 6.75669 9.81955 6.82423 9.81955C6.89177 9.81955 6.95862 9.8332 7.02081 9.85969C7.08299 9.88617 7.13923 9.92495 7.18619 9.97372C7.27737 10.0766 7.38919 10.159 7.5143 10.2153C7.63941 10.2717 7.77498 10.3009 7.91211 10.3009C8.04924 10.3009 8.18482 10.2717 8.30993 10.2153C8.43504 10.159 8.54685 10.0766 8.63802 9.97372C8.68498 9.92495 8.74123 9.88617 8.80342 9.85969C8.8656 9.8332 8.93246 9.81955 9 9.81955C9.06754 9.81955 9.1344 9.8332 9.19658 9.85969C9.25877 9.88617 9.31501 9.92495 9.36197 9.97372C9.45314 10.0766 9.56496 10.159 9.69007 10.2153C9.81518 10.2717 9.95075 10.3009 10.0879 10.3009C10.225 10.3009 10.3606 10.2717 10.4857 10.2153C10.6108 10.159 10.7226 10.0766 10.8138 9.97372C10.8608 9.92495 10.917 9.88617 10.9792 9.85969C11.0414 9.8332 11.1082 9.81955 11.1758 9.81955C11.2433 9.81955 11.3102 9.8332 11.3724 9.85969C11.4345 9.88617 11.4908 9.92495 11.5377 9.97372C11.6289 10.0766 11.7407 10.159 11.8658 10.2153C11.991 10.2717 12.1265 10.3009 12.2637 10.3009C12.4008 10.3009 12.5364 10.2717 12.6615 10.2153C12.7866 10.159 12.8984 10.0766 12.9896 9.97372C13.0365 9.92495 13.0928 9.88617 13.155 9.85969C13.2171 9.8332 13.284 9.81955 13.3515 9.81955C13.4191 9.81955 13.4859 9.8332 13.5481 9.85969C13.6103 9.88617 13.6665 9.92495 13.7135 9.97372C13.8047 10.0766 13.9165 10.159 14.0416 10.2153C14.1667 10.2717 14.3023 10.3009 14.4394 10.3009C14.5765 10.3009 14.7121 10.2717 14.8372 10.2153C14.9624 10.159 15.0742 10.0766 15.1653 9.97372C15.2123 9.92495 15.2685 9.88617 15.3307 9.85969C15.3929 9.8332 15.4598 9.81955 15.5273 9.81955C15.5949 9.81955 15.6617 9.8332 15.7239 9.85969C15.7861 9.88617 15.8423 9.92495 15.8893 9.97372C15.9916 10.0904 16.1201 10.1808 16.2642 10.2375C16.4083 10.2942 16.5638 10.3155 16.7177 10.2997C16.8717 10.2838 17.0196 10.2313 17.1493 10.1464C17.2789 10.0615 17.3865 9.94675 17.4631 9.81167C17.4809 9.77771 17.5057 9.74786 17.5357 9.72402C17.5656 9.70018 17.6003 9.68288 17.6373 9.67321C17.6743 9.66354 17.7129 9.66172 17.7506 9.66787C17.7884 9.67402 17.8244 9.68799 17.8565 9.70891C17.8895 9.72771 17.9184 9.75296 17.9415 9.78317C17.9645 9.81338 17.9813 9.84794 17.9909 9.8848C18.0004 9.92165 18.0025 9.96006 17.997 9.99774C17.9915 10.0354 17.9785 10.0716 17.9588 10.1041C17.8206 10.3423 17.6215 10.539 17.3821 10.6738C17.1428 10.8086 16.8719 10.8767 16.5975 10.8709Z" fill="#6D6D6D"/>
<path d="M16.5975 12.4993C16.3947 12.499 16.1939 12.4583 16.0069 12.3796C15.8198 12.301 15.6501 12.1858 15.5076 12.0408C15.3656 12.1858 15.1962 12.3009 15.0094 12.3795C14.8227 12.458 14.6222 12.4985 14.4197 12.4985C14.2172 12.4985 14.0168 12.458 13.83 12.3795C13.6432 12.3009 13.4739 12.1858 13.3318 12.0408C13.1898 12.1858 13.0204 12.3009 12.8337 12.3795C12.6469 12.458 12.4464 12.4985 12.244 12.4985C12.0415 12.4985 11.841 12.458 11.6542 12.3795C11.4675 12.3009 11.2981 12.1858 11.1561 12.0408C11.014 12.1858 10.8447 12.3009 10.6579 12.3795C10.4711 12.458 10.2707 12.4985 10.0682 12.4985C9.8657 12.4985 9.66523 12.458 9.47846 12.3795C9.29169 12.3009 9.12235 12.1858 8.98029 12.0408C8.83824 12.1858 8.6689 12.3009 8.48213 12.3795C8.29536 12.458 8.0949 12.4985 7.89241 12.4985C7.68993 12.4985 7.48945 12.458 7.30268 12.3795C7.11592 12.3009 6.94658 12.1858 6.80452 12.0408C6.66247 12.1858 6.49313 12.3009 6.30636 12.3795C6.11959 12.458 5.91913 12.4985 5.71664 12.4985C5.51415 12.4985 5.31368 12.458 5.12691 12.3795C4.94014 12.3009 4.7708 12.1858 4.62875 12.0408C4.4867 12.1858 4.31736 12.3009 4.13059 12.3795C3.94382 12.458 3.74336 12.4985 3.54087 12.4985C3.33838 12.4985 3.13791 12.458 2.95114 12.3795C2.76437 12.3009 2.59503 12.1858 2.45298 12.0408C2.28806 12.2096 2.08651 12.3377 1.8641 12.4153C1.6417 12.4928 1.40446 12.5176 1.17092 12.4877C0.937385 12.4579 0.713892 12.3742 0.517902 12.2432C0.321912 12.1122 0.158733 11.9374 0.0411359 11.7325C0.0132007 11.6693 0.00946979 11.598 0.0306537 11.5323C0.0518375 11.4665 0.0964535 11.4109 0.155936 11.3761C0.215418 11.3413 0.285575 11.3298 0.352972 11.3438C0.42037 11.3578 0.480257 11.3963 0.521144 11.4519C0.607164 11.6008 0.730546 11.7244 0.87898 11.8104C1.02741 11.8964 1.1957 11.9418 1.36706 11.942C1.50396 11.9419 1.63928 11.9126 1.76407 11.856C1.88886 11.7995 2.0003 11.717 2.09101 11.614C2.13675 11.5631 2.1926 11.5225 2.25495 11.4947C2.3173 11.4668 2.38476 11.4525 2.45298 11.4525C2.5212 11.4525 2.58866 11.4668 2.65101 11.4947C2.71336 11.5225 2.76922 11.5631 2.81496 11.614C2.90613 11.7169 3.01794 11.7992 3.14305 11.8556C3.26816 11.912 3.40374 11.9411 3.54087 11.9411C3.678 11.9411 3.81357 11.912 3.93868 11.8556C4.06379 11.7992 4.17561 11.7169 4.26678 11.614C4.31375 11.5652 4.36999 11.5264 4.43217 11.4999C4.49436 11.4734 4.56121 11.4598 4.62875 11.4598C4.69629 11.4598 4.76315 11.4734 4.82533 11.4999C4.88752 11.5264 4.94377 11.5652 4.99073 11.614C5.0819 11.7169 5.19371 11.7992 5.31882 11.8556C5.44393 11.912 5.57952 11.9411 5.71664 11.9411C5.85377 11.9411 5.98934 11.912 6.11445 11.8556C6.23956 11.7992 6.35138 11.7169 6.44256 11.614C6.48952 11.5652 6.54576 11.5264 6.60794 11.4999C6.67013 11.4734 6.73698 11.4598 6.80452 11.4598C6.87207 11.4598 6.93892 11.4734 7.0011 11.4999C7.06329 11.5264 7.11954 11.5652 7.1665 11.614C7.25767 11.7169 7.36948 11.7992 7.49459 11.8556C7.61971 11.912 7.75529 11.9411 7.89241 11.9411C8.02954 11.9411 8.16511 11.912 8.29022 11.8556C8.41533 11.7992 8.52716 11.7169 8.61833 11.614C8.66529 11.5652 8.72153 11.5264 8.78371 11.4999C8.8459 11.4734 8.91275 11.4598 8.98029 11.4598C9.04784 11.4598 9.11469 11.4734 9.17687 11.4999C9.23906 11.5264 9.29531 11.5652 9.34227 11.614C9.43344 11.7169 9.54525 11.7992 9.67037 11.8556C9.79548 11.912 9.93106 11.9411 10.0682 11.9411C10.2053 11.9411 10.3409 11.912 10.466 11.8556C10.5911 11.7992 10.7029 11.7169 10.7941 11.614C10.8411 11.5652 10.8973 11.5264 10.9595 11.4999C11.0217 11.4734 11.0885 11.4598 11.1561 11.4598C11.2236 11.4598 11.2905 11.4734 11.3526 11.4999C11.4148 11.5264 11.4711 11.5652 11.518 11.614C11.6092 11.7169 11.721 11.7992 11.8461 11.8556C11.9712 11.912 12.1068 11.9411 12.244 11.9411C12.3811 11.9411 12.5167 11.912 12.6418 11.8556C12.7669 11.7992 12.8787 11.7169 12.9699 11.614C13.0168 11.5652 13.0731 11.5264 13.1353 11.4999C13.1974 11.4734 13.2643 11.4598 13.3318 11.4598C13.3994 11.4598 13.4662 11.4734 13.5284 11.4999C13.5906 11.5264 13.6469 11.5652 13.6938 11.614C13.785 11.7169 13.8968 11.7992 14.0219 11.8556C14.147 11.912 14.2826 11.9411 14.4197 11.9411C14.5569 11.9411 14.6924 11.912 14.8175 11.8556C14.9426 11.7992 15.0545 11.7169 15.1456 11.614C15.1926 11.5652 15.2488 11.5264 15.311 11.4999C15.3732 11.4734 15.4401 11.4598 15.5076 11.4598C15.5752 11.4598 15.642 11.4734 15.7042 11.4999C15.7664 11.5264 15.8226 11.5652 15.8696 11.614C15.9719 11.7306 16.1004 11.8211 16.2445 11.8778C16.3886 11.9345 16.5441 11.9558 16.698 11.9399C16.8519 11.9241 16.9999 11.8715 17.1296 11.7866C17.2592 11.7018 17.3668 11.587 17.4434 11.4519C17.4843 11.3963 17.5442 11.3578 17.6116 11.3438C17.679 11.3298 17.7491 11.3413 17.8086 11.3761C17.8681 11.4109 17.9127 11.4665 17.9339 11.5323C17.9551 11.598 17.9513 11.6693 17.9234 11.7325C17.7891 11.9662 17.5958 12.1602 17.3629 12.2948C17.1301 12.4294 16.8661 12.5 16.5975 12.4993Z" fill="#6D6D6D"/>
</svg>
