<svg width="28" height="35" viewBox="0 0 28 35" fill="none" xmlns="http://www.w3.org/2000/svg">
<path fill-rule="evenodd" clip-rule="evenodd" d="M4.8021 18.9486C4.05458 19.5866 3.42487 20.6153 3.14849 22.1815C3.11267 22.3844 3.17351 22.5686 3.31967 22.722C3.47391 22.8839 3.7184 23 4.00001 23H11C11.2816 23 11.5261 22.8839 11.6804 22.722C11.8265 22.5686 11.8874 22.3844 11.8515 22.1815C11.5752 20.6153 10.9454 19.5866 10.1979 18.9486C9.44784 18.3085 8.5073 18 7.50001 18C6.49273 18 5.55218 18.3085 4.8021 18.9486ZM2.16371 22.0077C2.78292 18.4987 5.07033 17 7.50001 17C9.9297 17 12.2171 18.4987 12.8363 22.0077C13.0283 23.0954 12.1046 24 11 24H4.00001C2.89544 24 1.97175 23.0955 2.16371 22.0077Z" fill="url(#paint0_linear_103_575)"/>
<path fill-rule="evenodd" clip-rule="evenodd" d="M7.50001 17C8.88073 17 10 15.8807 10 14.5C10 13.1193 8.88073 12 7.50001 12C6.1193 12 5.00001 13.1193 5.00001 14.5C5.00001 15.8807 6.1193 17 7.50001 17ZM7.50001 18C9.43301 18 11 16.433 11 14.5C11 12.567 9.43301 11 7.50001 11C5.56702 11 4.00001 12.567 4.00001 14.5C4.00001 16.433 5.56702 18 7.50001 18Z" fill="url(#paint1_linear_103_575)"/>
<mask id="mask0_103_575" style="mask-type:alpha" maskUnits="userSpaceOnUse" x="6" y="0" width="16" height="9">
<path d="M6 0H22V9H6V0Z" fill="#D9D9D9"/>
</mask>
<g mask="url(#mask0_103_575)">
<path fill-rule="evenodd" clip-rule="evenodd" d="M16.0591 6.33055C16.9324 5.69414 17.5 4.66335 17.5 3.5C17.5 1.567 15.933 0 14 0C12.067 0 10.5 1.567 10.5 3.5C10.5 4.66335 11.0676 5.69414 11.9409 6.33055C10.1458 6.94423 8.67298 8.43669 8.17824 11.0094C7.96965 12.0941 8.89543 13 10 13H18C19.1046 13 20.0303 12.0941 19.8218 11.0094C19.327 8.43669 17.8542 6.94423 16.0591 6.33055ZM16.5 3.5C16.5 4.88071 15.3807 6 14 6C12.6193 6 11.5 4.88071 11.5 3.5C11.5 2.11929 12.6193 1 14 1C15.3807 1 16.5 2.11929 16.5 3.5ZM9.16025 11.1983C9.45762 9.65184 10.1366 8.62369 10.9644 7.97592C11.8009 7.32131 12.8607 7 14 7C15.1393 7 16.1991 7.32131 17.0356 7.97592C17.8634 8.62369 18.5424 9.65184 18.8398 11.1983C18.8775 11.3947 18.8207 11.5726 18.6778 11.7233C18.5259 11.8834 18.2819 12 18 12H10C9.71808 12 9.47408 11.8834 9.3222 11.7233C9.17925 11.5726 9.12247 11.3947 9.16025 11.1983Z" fill="url(#paint2_linear_103_575)"/>
</g>
<path fill-rule="evenodd" clip-rule="evenodd" d="M17.8021 18.9486C17.0546 19.5866 16.4249 20.6153 16.1485 22.1815C16.1127 22.3844 16.1735 22.5686 16.3197 22.722C16.4739 22.8839 16.7184 23 17 23H24C24.2816 23 24.5261 22.8839 24.6804 22.722C24.8265 22.5686 24.8874 22.3844 24.8515 22.1815C24.5752 20.6153 23.9454 19.5866 23.1979 18.9486C22.4478 18.3085 21.5073 18 20.5 18C19.4927 18 18.5522 18.3085 17.8021 18.9486ZM15.1637 22.0077C15.7829 18.4987 18.0703 17 20.5 17C22.9297 17 25.2171 18.4987 25.8363 22.0077C26.0283 23.0954 25.1046 24 24 24H17C15.8954 24 14.9718 23.0955 15.1637 22.0077Z" fill="url(#paint3_linear_103_575)"/>
<path fill-rule="evenodd" clip-rule="evenodd" d="M20.5 17C21.8807 17 23 15.8807 23 14.5C23 13.1193 21.8807 12 20.5 12C19.1193 12 18 13.1193 18 14.5C18 15.8807 19.1193 17 20.5 17ZM20.5 18C22.433 18 24 16.433 24 14.5C24 12.567 22.433 11 20.5 11C18.567 11 17 12.567 17 14.5C17 16.433 18.567 18 20.5 18Z" fill="url(#paint4_linear_103_575)"/>
<circle cx="13.5" cy="33.5" r="1.5" fill="url(#paint5_linear_103_575)"/>
<defs>
<linearGradient id="paint0_linear_103_575" x1="3.70214" y1="12.8958" x2="12.7424" y2="20.353" gradientUnits="userSpaceOnUse">
<stop stop-color="#F56252"/>
<stop offset="1" stop-color="#91359F"/>
</linearGradient>
<linearGradient id="paint1_linear_103_575" x1="3.70214" y1="12.8958" x2="12.7424" y2="20.353" gradientUnits="userSpaceOnUse">
<stop stop-color="#F56252"/>
<stop offset="1" stop-color="#91359F"/>
</linearGradient>
<linearGradient id="paint2_linear_103_575" x1="9.85532" y1="1.89583" x2="19.013" y2="10.1396" gradientUnits="userSpaceOnUse">
<stop stop-color="#F56252"/>
<stop offset="1" stop-color="#91359F"/>
</linearGradient>
<linearGradient id="paint3_linear_103_575" x1="16.7021" y1="12.8958" x2="25.7424" y2="20.353" gradientUnits="userSpaceOnUse">
<stop stop-color="#F56252"/>
<stop offset="1" stop-color="#91359F"/>
</linearGradient>
<linearGradient id="paint4_linear_103_575" x1="16.7021" y1="12.8958" x2="25.7424" y2="20.353" gradientUnits="userSpaceOnUse">
<stop stop-color="#F56252"/>
<stop offset="1" stop-color="#91359F"/>
</linearGradient>
<linearGradient id="paint5_linear_103_575" x1="12.4375" y1="32.4375" x2="14.5625" y2="34.5625" gradientUnits="userSpaceOnUse">
<stop stop-color="#F56252"/>
<stop offset="1" stop-color="#91359F"/>
</linearGradient>
</defs>
</svg>
