<svg width="24" height="24" viewBox="0 0 24 24" fill="none" xmlns="http://www.w3.org/2000/svg">
<path fill-rule="evenodd" clip-rule="evenodd" d="M2.8021 18.9486C2.05458 19.5866 1.42487 20.6153 1.14849 22.1815C1.11267 22.3844 1.17351 22.5686 1.31967 22.722C1.47391 22.8839 1.7184 23 2.00001 23H9.00001C9.28163 23 9.52611 22.8839 9.68036 22.722C9.82652 22.5686 9.88735 22.3844 9.85154 22.1815C9.57516 20.6153 8.94545 19.5866 8.19793 18.9486C7.44784 18.3085 6.5073 18 5.50001 18C4.49273 18 3.55218 18.3085 2.8021 18.9486ZM0.163706 22.0077C0.782917 18.4987 3.07033 17 5.50001 17C7.9297 17 10.2171 18.4987 10.8363 22.0077C11.0283 23.0954 10.1046 24 9.00001 24H2.00001C0.895444 24 -0.0282477 23.0955 0.163706 22.0077Z" fill="#BCBCBC"/>
<path fill-rule="evenodd" clip-rule="evenodd" d="M5.50001 17C6.88073 17 8.00001 15.8807 8.00001 14.5C8.00001 13.1193 6.88073 12 5.50001 12C4.1193 12 3.00001 13.1193 3.00001 14.5C3.00001 15.8807 4.1193 17 5.50001 17ZM5.50001 18C7.43301 18 9.00001 16.433 9.00001 14.5C9.00001 12.567 7.43301 11 5.50001 11C3.56702 11 2.00001 12.567 2.00001 14.5C2.00001 16.433 3.56702 18 5.50001 18Z" fill="#BCBCBC"/>
<mask id="mask0_58_859" style="mask-type:alpha" maskUnits="userSpaceOnUse" x="4" y="0" width="16" height="9">
<path d="M4 0H20V9H4V0Z" fill="#D9D9D9"/>
</mask>
<g mask="url(#mask0_58_859)">
<path fill-rule="evenodd" clip-rule="evenodd" d="M14.0591 6.33055C14.9324 5.69414 15.5 4.66335 15.5 3.5C15.5 1.567 13.933 0 12 0C10.067 0 8.5 1.567 8.5 3.5C8.5 4.66335 9.06759 5.69414 9.94094 6.33055C8.14579 6.94423 6.67298 8.43669 6.17824 11.0094C5.96965 12.0941 6.89543 13 8 13H16C17.1046 13 18.0303 12.0941 17.8218 11.0094C17.327 8.43669 15.8542 6.94423 14.0591 6.33055ZM14.5 3.5C14.5 4.88071 13.3807 6 12 6C10.6193 6 9.5 4.88071 9.5 3.5C9.5 2.11929 10.6193 1 12 1C13.3807 1 14.5 2.11929 14.5 3.5ZM7.16025 11.1983C7.45762 9.65184 8.1366 8.62369 8.96439 7.97592C9.80094 7.32131 10.8607 7 12 7C13.1393 7 14.1991 7.32131 15.0356 7.97592C15.8634 8.62369 16.5424 9.65184 16.8398 11.1983C16.8775 11.3947 16.8207 11.5726 16.6778 11.7233C16.5259 11.8834 16.2819 12 16 12H8C7.71808 12 7.47408 11.8834 7.3222 11.7233C7.17925 11.5726 7.12247 11.3947 7.16025 11.1983Z" fill="#BCBCBC"/>
</g>
<path fill-rule="evenodd" clip-rule="evenodd" d="M15.8021 18.9486C15.0546 19.5866 14.4249 20.6153 14.1485 22.1815C14.1127 22.3844 14.1735 22.5686 14.3197 22.722C14.4739 22.8839 14.7184 23 15 23H22C22.2816 23 22.5261 22.8839 22.6804 22.722C22.8265 22.5686 22.8874 22.3844 22.8515 22.1815C22.5752 20.6153 21.9454 19.5866 21.1979 18.9486C20.4478 18.3085 19.5073 18 18.5 18C17.4927 18 16.5522 18.3085 15.8021 18.9486ZM13.1637 22.0077C13.7829 18.4987 16.0703 17 18.5 17C20.9297 17 23.2171 18.4987 23.8363 22.0077C24.0283 23.0954 23.1046 24 22 24H15C13.8954 24 12.9718 23.0955 13.1637 22.0077Z" fill="#BCBCBC"/>
<path fill-rule="evenodd" clip-rule="evenodd" d="M18.5 17C19.8807 17 21 15.8807 21 14.5C21 13.1193 19.8807 12 18.5 12C17.1193 12 16 13.1193 16 14.5C16 15.8807 17.1193 17 18.5 17ZM18.5 18C20.433 18 22 16.433 22 14.5C22 12.567 20.433 11 18.5 11C16.567 11 15 12.567 15 14.5C15 16.433 16.567 18 18.5 18Z" fill="#BCBCBC"/>
</svg>
