<svg width="29" height="35" viewBox="0 0 29 35" fill="none" xmlns="http://www.w3.org/2000/svg">
<mask id="mask0_58_868" style="mask-type:alpha" maskUnits="userSpaceOnUse" x="16" y="4" width="13" height="17">
<path d="M19.7943 21C19.3568 18.551 17.5613 15.6122 16.4675 15V4H29V21H19.7943Z" fill="white"/>
</mask>
<g mask="url(#mask0_58_868)">
<path fill-rule="evenodd" clip-rule="evenodd" d="M25.9948 9.5C25.9948 11.4306 24.425 13 22.4831 13C20.5412 13 18.9715 11.4306 18.9715 9.5C18.9715 7.56945 20.5412 6 22.4831 6C24.425 6 25.9948 7.56945 25.9948 9.5ZM24.753 13.3899C26.0938 12.6099 26.9948 11.1599 26.9948 9.5C26.9948 7.01472 24.9749 5 22.4831 5C19.9914 5 17.9715 7.01472 17.9715 9.5C17.9715 11.1599 18.8725 12.6099 20.2133 13.3899C18.2173 14.1211 16.594 15.9105 16.1122 19.0067C15.9424 20.0982 16.8617 21 17.9663 21H27C28.1046 21 29.0239 20.0982 28.854 19.0067C28.3722 15.9105 26.7489 14.1211 24.753 13.3899ZM17.1003 19.1605C17.3976 17.2502 18.1559 15.9795 19.088 15.1841C20.0247 14.3847 21.2134 14 22.4831 14C23.7529 14 24.9416 14.3847 25.8783 15.1841C26.8103 15.9795 27.5687 17.2502 27.8659 19.1605C27.9243 19.5356 27.6079 20 27 20H17.9663C17.3584 20 17.042 19.5356 17.1003 19.1605Z" fill="url(#paint0_linear_58_868)"/>
</g>
<path fill-rule="evenodd" clip-rule="evenodd" d="M14.9661 6C14.9661 8.75898 12.723 11 9.95048 11C7.178 11 4.93489 8.75898 4.93489 6C4.93489 3.24102 7.178 1 9.95048 1C12.723 1 14.9661 3.24102 14.9661 6ZM12.6439 11.3664C14.6139 10.3809 15.9661 8.34794 15.9661 6C15.9661 2.68629 13.2728 0 9.95048 0C6.62816 0 3.93489 2.68629 3.93489 6C3.93489 8.348 5.28711 10.381 7.25719 11.3665C3.57657 12.4118 0.536754 15.7432 0.00660856 21.9987C-0.0866673 23.0993 0.82013 24 1.9247 24H17.9766C19.0812 24 19.988 23.0993 19.8947 21.9987C19.3646 15.743 16.3246 12.4117 12.6439 11.3664ZM1.00304 22.0831C1.31555 18.3956 2.53045 15.8892 4.12864 14.3102C5.72472 12.7333 7.78412 12 9.95067 12C12.1172 12 14.1766 12.7333 15.7727 14.3102C17.3709 15.8892 18.5858 18.3956 18.8983 22.0831C18.9374 22.5444 18.5531 23 17.9766 23H1.9247C1.34821 23 0.963942 22.5444 1.00304 22.0831Z" fill="url(#paint1_linear_58_868)"/>
<circle cx="14.5" cy="33.5" r="1.5" fill="url(#paint2_linear_58_868)"/>
<defs>
<linearGradient id="paint0_linear_58_868" x1="17.956" y1="7.33333" x2="29.0096" y2="16.164" gradientUnits="userSpaceOnUse">
<stop stop-color="#F56252"/>
<stop offset="1" stop-color="#91359F"/>
</linearGradient>
<linearGradient id="paint1_linear_58_868" x1="2.90227" y1="3.5" x2="19.6085" y2="17.3531" gradientUnits="userSpaceOnUse">
<stop stop-color="#F56252"/>
<stop offset="1" stop-color="#91359F"/>
</linearGradient>
<linearGradient id="paint2_linear_58_868" x1="13.4375" y1="32.4375" x2="15.5625" y2="34.5625" gradientUnits="userSpaceOnUse">
<stop stop-color="#F56252"/>
<stop offset="1" stop-color="#91359F"/>
</linearGradient>
</defs>
</svg>
