<svg width="17" height="13" viewBox="0 0 17 13" fill="none" xmlns="http://www.w3.org/2000/svg">
<g clip-path="url(#clip0_58_752)">
<path d="M5.84986 10.9053C5.88705 10.9563 5.93827 10.9956 5.99736 11.0184C6.05645 11.0411 6.1209 11.0465 6.18295 11.0337L8.71859 10.578L10.5381 12.4006C10.5692 12.4329 10.6068 12.4584 10.6483 12.4755C10.6899 12.4926 10.7346 12.501 10.7796 12.5C10.814 12.506 10.8492 12.506 10.8837 12.5C10.944 12.4808 10.9976 12.4449 11.0382 12.3965C11.0787 12.3481 11.1046 12.2891 11.1127 12.2266L11.4624 9.6833L13.7649 8.52763C13.8221 8.50052 13.8702 8.45756 13.9034 8.40392C13.9366 8.35028 13.9536 8.28823 13.9522 8.22523C13.9517 8.1621 13.9335 8.10038 13.8997 8.04696C13.8659 7.99355 13.8177 7.95057 13.7607 7.92285L11.4374 6.8086L11.046 4.26942C11.0369 4.20705 11.0103 4.14849 10.9693 4.10046C10.9283 4.05243 10.8745 4.01688 10.8141 3.99786C10.7537 3.97884 10.6891 3.97711 10.6278 3.99291C10.5665 4.0087 10.5108 4.04137 10.4673 4.08716L8.68111 5.94289L6.13299 5.52867C6.07083 5.51909 6.00722 5.52679 5.94917 5.55092C5.89113 5.57504 5.84091 5.61462 5.80406 5.66534C5.7675 5.71675 5.74584 5.77717 5.74144 5.83999C5.73703 5.90281 5.75005 5.96561 5.77908 6.02157L6.99902 8.28323L5.82072 10.5656C5.79463 10.6196 5.78357 10.6796 5.7887 10.7394C5.79383 10.7991 5.81494 10.8564 5.84986 10.9053ZM7.68601 8.41993C7.71155 8.37135 7.72489 8.31734 7.72489 8.26252C7.72489 8.2077 7.71155 8.15369 7.68601 8.10511L6.70757 6.29082L8.75189 6.61805C8.80623 6.62784 8.86218 6.62389 8.91457 6.60652C8.96696 6.58914 9.01411 6.55891 9.05168 6.51864L10.484 5.0316L10.8004 7.06956C10.8092 7.12345 10.8308 7.17448 10.8634 7.21842C10.896 7.26236 10.9386 7.29794 10.9878 7.32223L12.853 8.21696L11.0002 9.14067C10.9505 9.16469 10.9076 9.20082 10.8756 9.24571C10.8435 9.29061 10.8234 9.3428 10.817 9.39748L10.5339 11.4354L9.07249 9.96911C9.00818 9.9058 8.92148 9.87011 8.831 9.8697H8.77271L6.73255 10.2384L7.68601 8.41993Z" fill="#6D6D6D"/>
<path d="M15.0931 2.47171L14.4852 3.20486L13.5276 3.11375C13.4643 3.10836 13.4008 3.12061 13.3442 3.14914C13.2875 3.17768 13.24 3.22138 13.207 3.2753C13.1743 3.32902 13.157 3.39061 13.157 3.45341C13.157 3.51621 13.1743 3.57781 13.207 3.63152L13.7191 4.43926L13.3402 5.32156C13.3119 5.38136 13.3019 5.44814 13.3116 5.51355C13.3213 5.57896 13.3502 5.64006 13.3947 5.68918C13.4392 5.7383 13.4973 5.77326 13.5616 5.78965C13.626 5.80605 13.6938 5.80316 13.7566 5.78134L14.6892 5.54523L15.4095 6.17897C15.4719 6.23272 15.5518 6.26216 15.6344 6.26182C15.6685 6.25976 15.7022 6.25279 15.7343 6.24112C15.7928 6.21711 15.8434 6.17719 15.8803 6.12591C15.9171 6.07463 15.9386 6.01406 15.9425 5.95116L16.0091 4.99845L16.8418 4.50967C16.8964 4.47697 16.9409 4.42987 16.9703 4.37358C16.9997 4.31729 17.0129 4.25399 17.0083 4.19071C17.0029 4.12821 16.9802 4.06844 16.9427 4.01799C16.9053 3.96754 16.8545 3.92839 16.796 3.9049L15.905 3.54868L15.6926 2.61668C15.6792 2.5549 15.6485 2.49816 15.6041 2.45298C15.5597 2.40779 15.5033 2.37602 15.4415 2.3613C15.3798 2.34659 15.3151 2.34953 15.2549 2.3698C15.1947 2.39006 15.1415 2.42681 15.1014 2.47583L15.0931 2.47171ZM15.3429 4.77063L15.3138 5.218L14.9723 4.92389C14.9114 4.86726 14.8309 4.8361 14.7475 4.8369H14.6642L14.2271 4.9446L14.4061 4.53038C14.4279 4.47982 14.437 4.42475 14.4326 4.36991C14.4283 4.31508 14.4106 4.26211 14.3811 4.21557L14.1396 3.83449L14.5935 3.8759C14.6482 3.88103 14.7034 3.87277 14.7542 3.85183C14.805 3.8309 14.8499 3.79793 14.8849 3.75579L15.1722 3.41198L15.2721 3.85105C15.2841 3.90449 15.309 3.95426 15.3445 3.99609C15.38 4.03793 15.4252 4.07059 15.4761 4.09131L15.8925 4.257L15.5053 4.48482C15.4564 4.51521 15.4159 4.55727 15.3876 4.60719C15.3592 4.6571 15.3439 4.7133 15.3429 4.77063Z" fill="#6D6D6D"/>
<path d="M1.24907 4.09959L0.903492 5.73162C0.890371 5.79357 0.895137 5.85795 0.917241 5.91732C0.939344 5.97669 0.977876 6.02864 1.0284 6.06714C1.07781 6.10601 1.13729 6.13014 1.19993 6.13674C1.26257 6.14334 1.32581 6.13212 1.3823 6.10441L2.89786 5.38781L4.35096 6.21625C4.40067 6.2476 4.45866 6.26346 4.5175 6.26181C4.58589 6.26303 4.65292 6.24273 4.70903 6.20382C4.76084 6.1685 4.80185 6.11967 4.82756 6.06267C4.85327 6.00566 4.86268 5.94271 4.85475 5.88074L4.63408 4.22385L5.88316 3.10545C5.92984 3.0629 5.96371 3.00828 5.98098 2.94769C5.99825 2.88709 5.99825 2.82291 5.98097 2.76232C5.96369 2.70173 5.92982 2.6471 5.88313 2.60456C5.83645 2.56201 5.7788 2.53323 5.71662 2.5214L4.05118 2.21901L3.36418 0.698819C3.33913 0.640716 3.29809 0.590849 3.24579 0.554939C3.19349 0.519029 3.13206 0.498542 3.06857 0.495855C3.00509 0.494137 2.94237 0.509841 2.88728 0.541261C2.83219 0.572682 2.78687 0.618602 2.7563 0.673967L1.95688 2.1403L0.291442 2.31844C0.228375 2.32477 0.168379 2.34864 0.118331 2.38733C0.068283 2.42603 0.0302104 2.47799 0.00847861 2.53723C-0.0132531 2.59647 -0.0177661 2.6606 -0.00453901 2.72227C0.00868809 2.78394 0.0391187 2.84067 0.0832616 2.88592L1.24907 4.09959ZM2.49815 2.62496L3.05608 1.60182L3.53073 2.66223C3.55426 2.71178 3.5891 2.75519 3.63247 2.78899C3.67584 2.82279 3.72654 2.84606 3.78054 2.85692L4.9297 3.06403L4.06367 3.84277C4.02231 3.87975 3.99078 3.92633 3.97189 3.97836C3.953 4.03039 3.94735 4.08626 3.95542 4.141L4.10947 5.29255L3.09771 4.71263C3.04546 4.68365 2.98682 4.668 2.927 4.66707C2.87661 4.66767 2.82693 4.67897 2.78128 4.70021L1.72788 5.20141L1.96937 4.06644C1.9797 4.01275 1.97716 3.9574 1.96197 3.90487C1.94678 3.85233 1.91936 3.8041 1.88194 3.76407L1.07836 2.93563L2.23584 2.81134C2.28876 2.80199 2.33866 2.7802 2.38139 2.74778C2.42412 2.71536 2.45844 2.67325 2.4815 2.62496H2.49815Z" fill="#6D6D6D"/>
</g>
<defs>
<clipPath id="clip0_58_752">
<rect width="17" height="12" fill="white" transform="translate(0 0.5)"/>
</clipPath>
</defs>
</svg>
